<?xml version="1.0" encoding="UTF-8"?>
<svg viewBox="0 0 1376 474" version="1.1" xmlns="http://www.w3.org/2000/svg" xmlns:xlink="http://www.w3.org/1999/xlink">
    <!-- Generator: Sketch 55.1 (78136) - https://sketchapp.com -->
    <title>logo</title>
    <desc>Created with Sketch.</desc>
    <g id="logo" transform="translate(0.000000, -4.000000)" fill="#FFFFFF">
        <path d="M57.5659935,437.045643 L23.1721341,437.045643 L23.1721341,473.788382 C23.1721341,475.240664 22.0062406,476.40249 20.5488736,476.40249 L2.62326046,476.40249 C1.16589354,476.40249 0,475.240664 0,473.788382 L0,377.356846 C0,375.904564 1.16589354,374.742739 2.62326046,374.742739 L67.767562,374.742739 C69.2249289,374.742739 70.3908224,375.904564 70.3908224,377.356846 L70.3908224,393.767635 C70.3908224,395.219917 69.2249289,396.381743 67.767562,396.381743 L23.1721341,396.381743 L23.1721341,415.406639 L57.5659935,415.406639 C59.0233604,415.406639 60.189254,416.568465 60.189254,418.020747 L60.189254,434.431535 C60.189254,435.883817 59.0233604,437.045643 57.5659935,437.045643 Z M167.345023,408.290456 C167.345023,422.66805 159.475241,432.979253 148.544989,438.352697 L165.304709,474.078838 C165.887656,475.095436 165.013236,476.40249 163.847342,476.40249 L143.589942,476.40249 C141.986838,476.40249 140.529471,475.53112 139.800788,474.078838 L124.935645,442.273859 L114.58834,442.273859 L114.58834,473.788382 C114.58834,475.240664 113.422446,476.40249 111.96508,476.40249 L94.0394664,476.40249 C92.5820995,476.40249 91.4162059,475.240664 91.4162059,473.788382 L91.4162059,377.356846 C91.4162059,375.904564 92.5820995,374.742739 94.0394664,374.742739 L130.473639,374.742739 C158.746558,374.742739 167.345023,394.493776 167.345023,408.290456 Z M131.78527,420.489627 C141.695365,420.19917 144.027152,412.06639 144.027152,408.290456 C144.027152,404.078838 141.695365,396.236515 131.202323,396.236515 L114.58834,396.236515 L114.58834,420.489627 L131.78527,420.489627 Z M233.257307,373 C271.877531,373 283.82794,404.224066 283.82794,425.427386 C283.82794,447.211618 271.877531,478 233.257307,478 C194.491347,478 182.540938,447.211618 182.540938,425.427386 C182.540938,404.224066 194.491347,373 233.257307,373 Z M233.257307,456.215768 C256.720915,456.215768 260.072859,432.979253 260.072859,425.427386 C260.072859,417.875519 256.720915,394.929461 233.257307,394.929461 C209.647963,394.929461 206.296019,417.875519 206.296019,425.427386 C206.296019,432.979253 209.647963,456.215768 233.257307,456.215768 Z M325.69367,476.40249 L307.476584,476.40249 C306.019217,476.40249 304.853323,475.240664 304.853323,473.788382 L304.853323,375.46888 C304.853323,374.307054 305.727743,373.290456 306.893637,373.290456 C308.351004,373.290456 309.662634,373.871369 310.682791,374.742739 L366.062734,426.298755 L366.062734,377.356846 C366.062734,375.904564 367.228628,374.742739 368.685994,374.742739 L386.757344,374.742739 C388.214711,374.742739 389.380605,375.904564 389.380605,377.356846 L389.380605,475.240664 C389.380605,476.257261 388.506185,477.128631 387.486028,477.128631 C386.320134,477.128631 385.154241,476.692946 384.279821,475.821577 L328.316931,423.103734 L328.316931,473.788382 C328.316931,475.240664 327.151037,476.40249 325.69367,476.40249 Z M433.432386,473.788382 L433.432386,396.381743 L409.385831,396.381743 C407.928464,396.381743 406.762571,395.219917 406.762571,393.767635 L406.762571,377.356846 C406.762571,375.904564 407.928464,374.742739 409.385831,374.742739 L481.234021,374.742739 C482.691388,374.742739 483.857281,375.904564 483.857281,377.356846 L483.857281,393.767635 C483.857281,395.219917 482.691388,396.381743 481.234021,396.381743 L456.895993,396.381743 L456.895993,473.788382 C456.895993,475.240664 455.7301,476.40249 454.272733,476.40249 L436.055646,476.40249 C434.598279,476.40249 433.432386,475.240664 433.432386,473.788382 Z M601.691128,437.045643 L567.443006,437.045643 L567.443006,454.763485 L612.038433,454.763485 C613.4958,454.763485 614.661694,455.925311 614.661694,457.377593 L614.661694,473.788382 C614.661694,475.240664 613.4958,476.40249 612.038433,476.40249 L546.748395,476.40249 C545.291028,476.40249 544.125135,475.240664 544.125135,473.788382 L544.125135,377.356846 C544.125135,375.904564 545.291028,374.742739 546.748395,374.742739 L612.038433,374.742739 C613.4958,374.742739 614.661694,375.904564 614.661694,377.356846 L614.661694,393.767635 C614.661694,395.219917 613.4958,396.381743 612.038433,396.381743 L567.443006,396.381743 L567.443006,415.406639 L601.691128,415.406639 C603.148495,415.406639 604.314389,416.568465 604.314389,418.020747 L604.314389,434.431535 C604.314389,435.883817 603.148495,437.045643 601.691128,437.045643 Z M656.527424,476.40249 L638.310338,476.40249 C636.852971,476.40249 635.687077,475.240664 635.687077,473.788382 L635.687077,375.46888 C635.687077,374.307054 636.561498,373.290456 637.727391,373.290456 C639.184758,373.290456 640.496388,373.871369 641.516545,374.742739 L696.896488,426.298755 L696.896488,377.356846 C696.896488,375.904564 698.062382,374.742739 699.519749,374.742739 L717.591099,374.742739 C719.048465,374.742739 720.214359,375.904564 720.214359,377.356846 L720.214359,475.240664 C720.214359,476.257261 719.339939,477.128631 718.319782,477.128631 C717.153888,477.128631 715.987995,476.692946 715.113575,475.821577 L659.150685,423.103734 L659.150685,473.788382 C659.150685,475.240664 657.984791,476.40249 656.527424,476.40249 Z M783.794857,476.40249 L749.692471,476.40249 C748.235104,476.40249 747.06921,475.240664 747.06921,473.788382 L747.06921,377.356846 C747.06921,375.904564 748.235104,374.742739 749.692471,374.742739 L783.794857,374.742739 C822.560817,374.742739 834.365489,404.224066 834.365489,425.427386 C834.365489,447.211618 822.560817,476.40249 783.794857,476.40249 Z M770.241344,454.763485 L783.794857,454.763485 C807.404201,454.763485 810.756145,432.979253 810.756145,425.427386 C810.756145,417.875519 807.404201,396.236515 783.794857,396.236515 L770.241344,396.236515 L770.241344,454.763485 Z M963.622473,442.709544 L963.622473,376.921162 C963.622473,375.759336 964.64263,374.742739 965.808523,374.742739 L976.447302,374.742739 C977.613195,374.742739 978.633352,375.759336 978.633352,376.921162 L978.633352,475.821577 C978.633352,476.547718 978.050405,477.128631 977.321722,477.128631 C976.447302,477.128631 975.718618,476.838174 975.135671,476.112033 L911.157263,407.709544 L911.011527,474.224066 C911.011527,475.385892 909.99137,476.40249 908.825476,476.40249 L898.186698,476.40249 C897.020804,476.40249 896.000647,475.385892 896.000647,474.224066 L896.000647,375.178423 C896.000647,374.307054 896.583594,373.726141 897.312278,373.726141 C898.186698,373.726141 899.061118,374.161826 899.644065,374.742739 L963.622473,442.709544 Z M1049.26489,373.290456 C1088.17658,373.290456 1099.68978,404.224066 1099.68978,425.427386 C1099.68978,447.211618 1088.17658,477.709544 1049.26489,477.709544 C1010.35319,477.709544 998.83999,447.211618 998.83999,425.427386 C998.83999,404.224066 1010.35319,373.290456 1049.26489,373.290456 Z M1049.26489,464.493776 C1080.01533,464.493776 1084.38743,435.157676 1084.38743,425.427386 C1084.38743,415.697095 1080.01533,386.506224 1049.26489,386.506224 C1018.51444,386.506224 1013.99661,415.697095 1013.99661,425.427386 C1013.99661,435.157676 1018.51444,464.493776 1049.26489,464.493776 Z M1134.61583,438.643154 L1134.61583,474.224066 C1134.61583,475.385892 1133.59567,476.40249 1132.42977,476.40249 L1122.08247,476.40249 C1120.91658,476.40249 1119.89642,475.385892 1119.89642,474.224066 L1119.89642,376.921162 C1119.89642,375.759336 1120.91658,374.742739 1122.08247,374.742739 L1157.64222,374.742739 C1184.89498,374.742739 1193.05624,393.622407 1193.05624,406.547718 C1193.05624,421.651452 1182.5632,432.688797 1170.32131,436.900415 L1188.10119,474.369295 C1188.5384,475.385892 1187.80972,476.40249 1186.78956,476.40249 L1175.13063,476.40249 C1173.819,476.40249 1172.50737,475.676349 1172.07016,474.369295 L1155.1647,438.643154 L1134.61583,438.643154 Z M1158.95385,425.427386 C1174.54768,425.136929 1178.04536,412.502075 1178.04536,406.547718 C1178.04536,400.012448 1174.54768,387.66805 1158.37091,387.66805 L1134.61583,387.66805 L1134.61583,425.427386 L1158.95385,425.427386 Z M1231.91717,474.224066 L1231.91717,387.813278 L1204.51868,387.813278 C1203.35278,387.813278 1202.33262,386.79668 1202.33262,385.634855 L1202.33262,376.921162 C1202.33262,375.759336 1203.35278,374.742739 1204.51868,374.742739 L1274.61802,374.742739 C1275.78392,374.742739 1276.80407,375.759336 1276.80407,376.921162 L1276.80407,385.634855 C1276.80407,386.79668 1275.78392,387.813278 1274.61802,387.813278 L1246.92805,387.813278 L1246.92805,474.224066 C1246.92805,475.385892 1245.9079,476.40249 1244.742,476.40249 L1234.10322,476.40249 C1232.93733,476.40249 1231.91717,475.385892 1231.91717,474.224066 Z M1308.37817,432.834025 L1308.37817,474.224066 C1308.37817,475.385892 1307.35802,476.40249 1306.19212,476.40249 L1295.55335,476.40249 C1294.38745,476.40249 1293.3673,475.385892 1293.3673,474.224066 L1293.3673,376.921162 C1293.3673,375.759336 1294.38745,374.742739 1295.55335,374.742739 L1306.19212,374.742739 C1307.35802,374.742739 1308.37817,375.759336 1308.37817,376.921162 L1308.37817,419.763485 L1360.98912,419.763485 L1360.98912,376.921162 C1360.98912,375.759336 1362.00928,374.742739 1363.17517,374.742739 L1373.81395,374.742739 C1374.97984,374.742739 1376,375.759336 1376,376.921162 L1376,474.224066 C1376,475.385892 1374.97984,476.40249 1373.81395,476.40249 L1363.17517,476.40249 C1362.00928,476.40249 1360.98912,475.385892 1360.98912,474.224066 L1360.98912,432.834025 L1308.37817,432.834025 Z" id="hero-text" fill-rule="nonzero"></path>
        <g id="hill" transform="translate(688.500000, 225.500000) rotate(-45.000000) translate(-688.500000, -225.500000) translate(530.000000, 67.000000)">
            <rect id="Rectangle" x="0" y="4.54747351e-13" width="99" height="99" rx="7"></rect>
            <rect id="Rectangle" x="109" y="4.54747351e-13" width="99" height="208" rx="7"></rect>
            <rect id="Rectangle" x="218" y="0" width="99" height="317" rx="7"></rect>
        </g>
    </g>
</svg>
