<?xml version="1.0" encoding="UTF-8"?>
<svg viewBox="0 0 802 289" preserveAspectRatio="xMidYMid meet" version="1.1" xmlns="http://www.w3.org/2000/svg" xmlns:xlink="http://www.w3.org/1999/xlink">
    <!-- Generator: Sketch 55.1 (78136) - https://sketchapp.com -->
    <title>FEN logo (stacked)</title>
    <desc>Created with Sketch.</desc>
    <g id="logo" transform="translate(-467.000000, -4.000000)" fill="#FFFFFF">
        <g id="stacked-group" transform="translate(464.000000, 0.920000)">
            <path d="M533.55,46.69 L512.31,46.69 L512.31,69.46 C512.31,70.36 511.59,71.08 510.69,71.08 L499.62,71.08 C498.72,71.08 498,70.36 498,69.46 L498,9.7 C498,8.8 498.72,8.08 499.62,8.08 L539.85,8.08 C540.75,8.08 541.47,8.8 541.47,9.7 L541.47,19.87 C541.47,20.77 540.75,21.49 539.85,21.49 L512.31,21.49 L512.31,33.28 L533.55,33.28 C534.45,33.28 535.17,34 535.17,34.9 L535.17,45.07 C535.17,45.97 534.45,46.69 533.55,46.69 Z M602.76,28.87 C602.76,37.78 597.9,44.17 591.15,47.5 L601.5,69.64 C601.86,70.27 601.32,71.08 600.6,71.08 L588.09,71.08 C587.1,71.08 586.2,70.54 585.75,69.64 L576.57,49.93 L570.18,49.93 L570.18,69.46 C570.18,70.36 569.46,71.08 568.56,71.08 L557.49,71.08 C556.59,71.08 555.87,70.36 555.87,69.46 L555.87,9.7 C555.87,8.8 556.59,8.08 557.49,8.08 L579.99,8.08 C597.45,8.08 602.76,20.32 602.76,28.87 Z M580.8,36.43 C586.92,36.25 588.36,31.21 588.36,28.87 C588.36,26.26 586.92,21.4 580.44,21.4 L570.18,21.4 L570.18,36.43 L580.8,36.43 Z M644.88,7 C668.73,7 676.11,26.35 676.11,39.49 C676.11,52.99 668.73,72.07 644.88,72.07 C620.94,72.07 613.56,52.99 613.56,39.49 C613.56,26.35 620.94,7 644.88,7 Z M644.88,58.57 C659.37,58.57 661.44,44.17 661.44,39.49 C661.44,34.81 659.37,20.59 644.88,20.59 C630.3,20.59 628.23,34.81 628.23,39.49 C628.23,44.17 630.3,58.57 644.88,58.57 Z M703.38,71.08 L692.13,71.08 C691.23,71.08 690.51,70.36 690.51,69.46 L690.51,8.53 C690.51,7.81 691.05,7.18 691.77,7.18 C692.67,7.18 693.48,7.54 694.11,8.08 L728.31,40.03 L728.31,9.7 C728.31,8.8 729.03,8.08 729.93,8.08 L741.09,8.08 C741.99,8.08 742.71,8.8 742.71,9.7 L742.71,70.36 C742.71,70.99 742.17,71.53 741.54,71.53 C740.82,71.53 740.1,71.26 739.56,70.72 L705,38.05 L705,69.46 C705,70.36 704.28,71.08 703.38,71.08 Z M772.23,69.46 L772.23,21.49 L757.38,21.49 C756.48,21.49 755.76,20.77 755.76,19.87 L755.76,9.7 C755.76,8.8 756.48,8.08 757.38,8.08 L801.75,8.08 C802.65,8.08 803.37,8.8 803.37,9.7 L803.37,19.87 C803.37,20.77 802.65,21.49 801.75,21.49 L786.72,21.49 L786.72,69.46 C786.72,70.36 786,71.08 785.1,71.08 L773.85,71.08 C772.95,71.08 772.23,70.36 772.23,69.46 Z M533.55,140.69 L512.4,140.69 L512.4,151.67 L539.94,151.67 C540.84,151.67 541.56,152.39 541.56,153.29 L541.56,163.46 C541.56,164.36 540.84,165.08 539.94,165.08 L499.62,165.08 C498.72,165.08 498,164.36 498,163.46 L498,103.7 C498,102.8 498.72,102.08 499.62,102.08 L539.94,102.08 C540.84,102.08 541.56,102.8 541.56,103.7 L541.56,113.87 C541.56,114.77 540.84,115.49 539.94,115.49 L512.4,115.49 L512.4,127.28 L533.55,127.28 C534.45,127.28 535.17,128 535.17,128.9 L535.17,139.07 C535.17,139.97 534.45,140.69 533.55,140.69 Z M568.83,165.08 L557.58,165.08 C556.68,165.08 555.96,164.36 555.96,163.46 L555.96,102.53 C555.96,101.81 556.5,101.18 557.22,101.18 C558.12,101.18 558.93,101.54 559.56,102.08 L593.76,134.03 L593.76,103.7 C593.76,102.8 594.48,102.08 595.38,102.08 L606.54,102.08 C607.44,102.08 608.16,102.8 608.16,103.7 L608.16,164.36 C608.16,164.99 607.62,165.53 606.99,165.53 C606.27,165.53 605.55,165.26 605.01,164.72 L570.45,132.05 L570.45,163.46 C570.45,164.36 569.73,165.08 568.83,165.08 Z M648.84,165.08 L627.78,165.08 C626.88,165.08 626.16,164.36 626.16,163.46 L626.16,103.7 C626.16,102.8 626.88,102.08 627.78,102.08 L648.84,102.08 C672.78,102.08 680.07,120.35 680.07,133.49 C680.07,146.99 672.78,165.08 648.84,165.08 Z M640.47,151.67 L648.84,151.67 C663.42,151.67 665.49,138.17 665.49,133.49 C665.49,128.81 663.42,115.4 648.84,115.4 L640.47,115.4 L640.47,151.67 Z M539.76,238.2 L539.76,197.43 C539.76,196.71 540.39,196.08 541.11,196.08 L547.68,196.08 C548.4,196.08 549.03,196.71 549.03,197.43 L549.03,258.72 C549.03,259.17 548.67,259.53 548.22,259.53 C547.68,259.53 547.23,259.35 546.87,258.9 L507.36,216.51 L507.27,257.73 C507.27,258.45 506.64,259.08 505.92,259.08 L499.35,259.08 C498.63,259.08 498,258.45 498,257.73 L498,196.35 C498,195.81 498.36,195.45 498.81,195.45 C499.35,195.45 499.89,195.72 500.25,196.08 L539.76,238.2 Z M594.57,195.18 C618.6,195.18 625.71,214.35 625.71,227.49 C625.71,240.99 618.6,259.89 594.57,259.89 C570.54,259.89 563.43,240.99 563.43,227.49 C563.43,214.35 570.54,195.18 594.57,195.18 Z M594.57,251.7 C613.56,251.7 616.26,233.52 616.26,227.49 C616.26,221.46 613.56,203.37 594.57,203.37 C575.58,203.37 572.79,221.46 572.79,227.49 C572.79,233.52 575.58,251.7 594.57,251.7 Z M649.2,235.68 L649.2,257.73 C649.2,258.45 648.57,259.08 647.85,259.08 L641.46,259.08 C640.74,259.08 640.11,258.45 640.11,257.73 L640.11,197.43 C640.11,196.71 640.74,196.08 641.46,196.08 L663.42,196.08 C680.25,196.08 685.29,207.78 685.29,215.79 C685.29,225.15 678.81,231.99 671.25,234.6 L682.23,257.82 C682.5,258.45 682.05,259.08 681.42,259.08 L674.22,259.08 C673.41,259.08 672.6,258.63 672.33,257.82 L661.89,235.68 L649.2,235.68 Z M664.23,227.49 C673.86,227.31 676.02,219.48 676.02,215.79 C676.02,211.74 673.86,204.09 663.87,204.09 L649.2,204.09 L649.2,227.49 L664.23,227.49 Z M713.01,257.73 L713.01,204.18 L696.09,204.18 C695.37,204.18 694.74,203.55 694.74,202.83 L694.74,197.43 C694.74,196.71 695.37,196.08 696.09,196.08 L739.38,196.08 C740.1,196.08 740.73,196.71 740.73,197.43 L740.73,202.83 C740.73,203.55 740.1,204.18 739.38,204.18 L722.28,204.18 L722.28,257.73 C722.28,258.45 721.65,259.08 720.93,259.08 L714.36,259.08 C713.64,259.08 713.01,258.45 713.01,257.73 Z M763.05,232.08 L763.05,257.73 C763.05,258.45 762.42,259.08 761.7,259.08 L755.13,259.08 C754.41,259.08 753.78,258.45 753.78,257.73 L753.78,197.43 C753.78,196.71 754.41,196.08 755.13,196.08 L761.7,196.08 C762.42,196.08 763.05,196.71 763.05,197.43 L763.05,223.98 L795.54,223.98 L795.54,197.43 C795.54,196.71 796.17,196.08 796.89,196.08 L803.46,196.08 C804.18,196.08 804.81,196.71 804.81,197.43 L804.81,257.73 C804.81,258.45 804.18,259.08 803.46,259.08 L796.89,259.08 C796.17,259.08 795.54,258.45 795.54,257.73 L795.54,232.08 L763.05,232.08 Z" id="stacked-text" fill-rule="nonzero"></path>
            <g id="hill" transform="translate(224.500000, 224.580000) rotate(-45.000000) translate(-224.500000, -224.580000) translate(66.000000, 66.080000)">
                <rect id="Rectangle" x="0" y="4.54747351e-13" width="99" height="99" rx="7"></rect>
                <rect id="Rectangle" x="109" y="4.54747351e-13" width="99" height="208" rx="7"></rect>
                <rect id="Rectangle" x="218" y="0" width="99" height="317" rx="7"></rect>
            </g>
        </g>
    </g>
</svg>
