<?xml version="1.0" encoding="UTF-8"?>
<svg viewBox="0 0 802 288" version="1.1" xmlns="http://www.w3.org/2000/svg" xmlns:xlink="http://www.w3.org/1999/xlink">
    <!-- Generator: Sketch 61.2 (89653) - https://sketch.com -->
    <title>FEN logo (stacked)</title>
    <desc>Created with Sketch.</desc>
    <g id="logo" transform="translate(-467.000000, -4.000000)" fill="#FFFFFF">
        <g id="stacked-group" transform="translate(465.000000, 1.920000)">
            <path d="M532.55,59.77 L511.31,59.77 L511.31,82.54 C511.31,83.44 510.59,84.16 509.69,84.16 L498.62,84.16 C497.72,84.16 497,83.44 497,82.54 L497,22.78 C497,21.88 497.72,21.16 498.62,21.16 L538.85,21.16 C539.75,21.16 540.47,21.88 540.47,22.78 L540.47,32.95 C540.47,33.85 539.75,34.57 538.85,34.57 L511.31,34.57 L511.31,46.36 L532.55,46.36 C533.45,46.36 534.17,47.08 534.17,47.98 L534.17,58.15 C534.17,59.05 533.45,59.77 532.55,59.77 Z M601.76,41.95 C601.76,50.86 596.9,57.25 590.15,60.58 L600.5,82.72 C600.86,83.35 600.32,84.16 599.6,84.16 L587.09,84.16 C586.1,84.16 585.2,83.62 584.75,82.72 L575.57,63.01 L569.18,63.01 L569.18,82.54 C569.18,83.44 568.46,84.16 567.56,84.16 L556.49,84.16 C555.59,84.16 554.87,83.44 554.87,82.54 L554.87,22.78 C554.87,21.88 555.59,21.16 556.49,21.16 L578.99,21.16 C596.45,21.16 601.76,33.4 601.76,41.95 Z M579.8,49.51 C585.92,49.33 587.36,44.29 587.36,41.95 C587.36,39.34 585.92,34.48 579.44,34.48 L569.18,34.48 L569.18,49.51 L579.8,49.51 Z M643.88,20.08 C667.73,20.08 675.11,39.43 675.11,52.57 C675.11,66.07 667.73,85.15 643.88,85.15 C619.94,85.15 612.56,66.07 612.56,52.57 C612.56,39.43 619.94,20.08 643.88,20.08 Z M643.88,71.65 C658.37,71.65 660.44,57.25 660.44,52.57 C660.44,47.89 658.37,33.67 643.88,33.67 C629.3,33.67 627.23,47.89 627.23,52.57 C627.23,57.25 629.3,71.65 643.88,71.65 Z M702.38,84.16 L691.13,84.16 C690.23,84.16 689.51,83.44 689.51,82.54 L689.51,21.61 C689.51,20.89 690.05,20.26 690.77,20.26 C691.67,20.26 692.48,20.62 693.11,21.16 L727.31,53.11 L727.31,22.78 C727.31,21.88 728.03,21.16 728.93,21.16 L740.09,21.16 C740.99,21.16 741.71,21.88 741.71,22.78 L741.71,83.44 C741.71,84.07 741.17,84.61 740.54,84.61 C739.82,84.61 739.1,84.34 738.56,83.8 L704,51.13 L704,82.54 C704,83.44 703.28,84.16 702.38,84.16 Z M771.23,82.54 L771.23,34.57 L756.38,34.57 C755.48,34.57 754.76,33.85 754.76,32.95 L754.76,22.78 C754.76,21.88 755.48,21.16 756.38,21.16 L800.75,21.16 C801.65,21.16 802.37,21.88 802.37,22.78 L802.37,32.95 C802.37,33.85 801.65,34.57 800.75,34.57 L785.72,34.57 L785.72,82.54 C785.72,83.44 785,84.16 784.1,84.16 L772.85,84.16 C771.95,84.16 771.23,83.44 771.23,82.54 Z M532.55,153.77 L511.4,153.77 L511.4,164.75 L538.94,164.75 C539.84,164.75 540.56,165.47 540.56,166.37 L540.56,176.54 C540.56,177.44 539.84,178.16 538.94,178.16 L498.62,178.16 C497.72,178.16 497,177.44 497,176.54 L497,116.78 C497,115.88 497.72,115.16 498.62,115.16 L538.94,115.16 C539.84,115.16 540.56,115.88 540.56,116.78 L540.56,126.95 C540.56,127.85 539.84,128.57 538.94,128.57 L511.4,128.57 L511.4,140.36 L532.55,140.36 C533.45,140.36 534.17,141.08 534.17,141.98 L534.17,152.15 C534.17,153.05 533.45,153.77 532.55,153.77 Z M567.83,178.16 L556.58,178.16 C555.68,178.16 554.96,177.44 554.96,176.54 L554.96,115.61 C554.96,114.89 555.5,114.26 556.22,114.26 C557.12,114.26 557.93,114.62 558.56,115.16 L592.76,147.11 L592.76,116.78 C592.76,115.88 593.48,115.16 594.38,115.16 L605.54,115.16 C606.44,115.16 607.16,115.88 607.16,116.78 L607.16,177.44 C607.16,178.07 606.62,178.61 605.99,178.61 C605.27,178.61 604.55,178.34 604.01,177.8 L569.45,145.13 L569.45,176.54 C569.45,177.44 568.73,178.16 567.83,178.16 Z M647.84,178.16 L626.78,178.16 C625.88,178.16 625.16,177.44 625.16,176.54 L625.16,116.78 C625.16,115.88 625.88,115.16 626.78,115.16 L647.84,115.16 C671.78,115.16 679.07,133.43 679.07,146.57 C679.07,160.07 671.78,178.16 647.84,178.16 Z M639.47,164.75 L647.84,164.75 C662.42,164.75 664.49,151.25 664.49,146.57 C664.49,141.89 662.42,128.48 647.84,128.48 L639.47,128.48 L639.47,164.75 Z M538.76,251.28 L538.76,210.51 C538.76,209.79 539.39,209.16 540.11,209.16 L546.68,209.16 C547.4,209.16 548.03,209.79 548.03,210.51 L548.03,271.8 C548.03,272.25 547.67,272.61 547.22,272.61 C546.68,272.61 546.23,272.43 545.87,271.98 L506.36,229.59 L506.27,270.81 C506.27,271.53 505.64,272.16 504.92,272.16 L498.35,272.16 C497.63,272.16 497,271.53 497,270.81 L497,209.43 C497,208.89 497.36,208.53 497.81,208.53 C498.35,208.53 498.89,208.8 499.25,209.16 L538.76,251.28 Z M593.57,208.26 C617.6,208.26 624.71,227.43 624.71,240.57 C624.71,254.07 617.6,272.97 593.57,272.97 C569.54,272.97 562.43,254.07 562.43,240.57 C562.43,227.43 569.54,208.26 593.57,208.26 Z M593.57,264.78 C612.56,264.78 615.26,246.6 615.26,240.57 C615.26,234.54 612.56,216.45 593.57,216.45 C574.58,216.45 571.79,234.54 571.79,240.57 C571.79,246.6 574.58,264.78 593.57,264.78 Z M648.2,248.76 L648.2,270.81 C648.2,271.53 647.57,272.16 646.85,272.16 L640.46,272.16 C639.74,272.16 639.11,271.53 639.11,270.81 L639.11,210.51 C639.11,209.79 639.74,209.16 640.46,209.16 L662.42,209.16 C679.25,209.16 684.29,220.86 684.29,228.87 C684.29,238.23 677.81,245.07 670.25,247.68 L681.23,270.9 C681.5,271.53 681.05,272.16 680.42,272.16 L673.22,272.16 C672.41,272.16 671.6,271.71 671.33,270.9 L660.89,248.76 L648.2,248.76 Z M663.23,240.57 C672.86,240.39 675.02,232.56 675.02,228.87 C675.02,224.82 672.86,217.17 662.87,217.17 L648.2,217.17 L648.2,240.57 L663.23,240.57 Z M712.01,270.81 L712.01,217.26 L695.09,217.26 C694.37,217.26 693.74,216.63 693.74,215.91 L693.74,210.51 C693.74,209.79 694.37,209.16 695.09,209.16 L738.38,209.16 C739.1,209.16 739.73,209.79 739.73,210.51 L739.73,215.91 C739.73,216.63 739.1,217.26 738.38,217.26 L721.28,217.26 L721.28,270.81 C721.28,271.53 720.65,272.16 719.93,272.16 L713.36,272.16 C712.64,272.16 712.01,271.53 712.01,270.81 Z M762.05,245.16 L762.05,270.81 C762.05,271.53 761.42,272.16 760.7,272.16 L754.13,272.16 C753.41,272.16 752.78,271.53 752.78,270.81 L752.78,210.51 C752.78,209.79 753.41,209.16 754.13,209.16 L760.7,209.16 C761.42,209.16 762.05,209.79 762.05,210.51 L762.05,237.06 L794.54,237.06 L794.54,210.51 C794.54,209.79 795.17,209.16 795.89,209.16 L802.46,209.16 C803.18,209.16 803.81,209.79 803.81,210.51 L803.81,270.81 C803.81,271.53 803.18,272.16 802.46,272.16 L795.89,272.16 C795.17,272.16 794.54,271.53 794.54,270.81 L794.54,245.16 L762.05,245.16 Z" id="stacked-text" fill-rule="nonzero"></path>
            <g id="hill" transform="translate(223.500000, 223.580000) rotate(-45.000000) translate(-223.500000, -223.580000) translate(66.000000, 65.080000)">
                <rect id="Rectangle" x="0" y="4.54747351e-13" width="97" height="99" rx="7"></rect>
                <rect id="Rectangle" x="109" y="4.54747351e-13" width="97" height="208" rx="7"></rect>
                <rect id="Rectangle" x="218" y="0" width="97" height="317" rx="7"></rect>
            </g>
        </g>
    </g>
</svg>
