<?xml version="1.0" standalone="no"?>
<!DOCTYPE svg PUBLIC "-//W3C//DTD SVG 20010904//EN"
 "http://www.w3.org/TR/2001/REC-SVG-20010904/DTD/svg10.dtd">
<svg version="1.0" xmlns="http://www.w3.org/2000/svg"
 width="600.000000pt" height="600.000000pt" viewBox="0 0 600.000000 600.000000"
 preserveAspectRatio="xMidYMid meet">
<metadata>
Created by potrace 1.11, written by Peter Selinger 2001-2013
</metadata>
<g transform="translate(0.000000,600.000000) scale(0.100000,-0.100000)"
fill="#000000" stroke="none">
<path d="M2597 4552 c-365 -366 -377 -379 -377 -416 0 -38 21 -60 1068 -1110
587 -589 1166 -1171 1286 -1293 121 -122 232 -227 248 -234 22 -9 35 -9 58 1
33 14 750 740 762 771 4 11 3 32 -3 47 -5 15 -591 609 -1302 1320 -1226 1226
-1294 1292 -1327 1292 -33 0 -59 -24 -413 -378z"/>
<path d="M1677 3612 c-351 -351 -377 -379 -377 -412 0 -32 44 -79 733 -770
403 -404 778 -781 833 -838 115 -120 153 -147 192 -137 34 8 748 717 768 762
8 18 11 40 8 50 -4 10 -390 402 -858 871 -805 806 -853 852 -886 852 -33 0
-59 -24 -413 -378z"/>
<path d="M748 2692 c-369 -369 -378 -379 -378 -417 0 -39 9 -48 379 -419 360
-360 382 -380 416 -380 34 0 56 20 416 380 371 371 379 380 379 419 0 39 -8
48 -378 417 -370 371 -378 378 -417 378 -39 0 -47 -7 -417 -378z"/>
</g>
</svg>
