<?xml version="1.0" encoding="UTF-8" standalone="no"?>
<svg viewBox="0 0 17 17" version="1.1" xmlns="http://www.w3.org/2000/svg" xmlns:xlink="http://www.w3.org/1999/xlink">
    <!-- Generator: Sketch 50.2 (55047) - http://www.bohemiancoding.com/sketch -->
    <title>cross</title>
    <desc>Created with Sketch.</desc>
    <path d="M8.4246212,6.30330086 L14.4350288,0.292893219 C14.8255531,-0.0976310729 15.4587181,-0.0976310729 15.8492424,0.292893219 L16.5563492,1 C16.9468735,1.39052429 16.9468735,2.02368927 16.5563492,2.41421356 L10.5459415,8.4246212 L16.5563492,14.4350288 C16.9468735,14.8255531 16.9468735,15.4587181 16.5563492,15.8492424 L15.8492424,16.5563492 C15.4587181,16.9468735 14.8255531,16.9468735 14.4350288,16.5563492 L8.4246212,10.5459415 L2.41421356,16.5563492 C2.02368927,16.9468735 1.39052429,16.9468735 1,16.5563492 L0.292893219,15.8492424 C-0.0976310729,15.4587181 -0.0976310729,14.8255531 0.292893219,14.4350288 L6.30330086,8.4246212 L0.292893219,2.41421356 C-0.0976310729,2.02368927 -0.0976310729,1.39052429 0.292893219,1 L1,0.292893219 C1.39052429,-0.0976310729 2.02368927,-0.0976310729 2.41421356,0.292893219 L8.4246212,6.30330086 Z" id="cross" fill="currentColor"></path>
</svg>
