<?xml version="1.0" encoding="UTF-8"?>
<svg viewBox="0 0 32 32" version="1.1" xmlns="http://www.w3.org/2000/svg" xmlns:xlink="http://www.w3.org/1999/xlink">
    <!-- Generator: Sketch 58 (84663) - https://sketch.com -->
    <title>link</title>
    <desc>Created with Sketch.</desc>
    <g id="link" stroke="none" stroke-width="1" fill="none" fill-rule="evenodd">
        <path d="M19.6249532,12.3750373 C20.6666177,13.4167018 21.395782,14.6354488 21.812448,16.0312785 C22.229114,17.4271082 22.3020298,18.8333549 22.0311975,20.2500185 C21.7603651,21.6666821 21.1666165,22.9375121 20.2499517,24.0625094 L20.1760883,24.1472199 C19.8730589,24.4846847 19.0018483,25.3731126 17.5624581,26.8125028 L14.9374644,29.4374966 C13.8124671,30.5624939 12.4999702,31.3229091 10.9999738,31.7187411 C9.49997735,32.1145732 7.99998093,32.1145732 6.4999845,31.7187411 C4.99998808,31.3229091 3.68749121,30.5624939 2.56249389,29.4374966 C1.43749657,28.3124993 0.677081401,27.0000024 0.281249329,25.500006 C-0.114582742,24.0000095 -0.114582742,22.5000131 0.281249329,21.0000167 C0.677081401,19.5000203 1.43749657,18.1875234 2.56249389,17.0625261 L6.4999845,13.1250355 C6.74998391,12.8750361 7.03123324,12.8125362 7.34373249,12.9375359 C7.65623175,13.0625356 7.81248137,13.2917021 7.81248137,13.6250343 C7.81248137,14.4166994 7.91664811,15.2083635 8.12498063,16.0000286 C8.16664751,16.250028 8.08331374,16.4791945 7.87498122,16.687527 L5.06248793,19.5625201 C4.02082343,20.5625177 3.49999166,21.7916818 3.49999166,23.2500113 C3.49999166,24.7083409 4.01040742,25.9479219 5.031238,26.9687525 C6.05206859,27.989583 7.2916496,28.4999988 8.74997914,28.4999988 C10.1171631,28.4999988 11.282932,28.0422365 12.2472852,27.1267111 L17.187459,22.2500137 C18.1874566,21.2500161 18.6874554,20.020852 18.6874554,18.5625225 C18.6874554,17.104193 18.1874566,15.8541959 17.187459,14.8125314 C16.770793,14.3958655 16.2916281,14.0625332 15.7499624,13.8125338 C15.4166302,13.6458672 15.2707966,13.3958678 15.3124635,13.0625356 C15.3957963,12.3125374 15.7082956,11.6667059 16.2499613,11.1250402 L16.4999607,10.8750408 C16.791627,10.6250414 17.0832923,10.5833745 17.3749586,10.7500411 C18.2082896,11.1667071 18.9582878,11.7083719 19.6249532,12.3750373 Z M29.4374298,2.56256065 C30.5624271,3.68755797 31.3228423,5.00005484 31.7186744,6.50005126 C32.1145064,8.00004768 32.1145064,9.50004411 31.7186744,11.0000405 C31.3228423,12.500037 30.5624271,13.8125338 29.4374298,14.9375311 L25.4999392,18.8750218 C25.2499398,19.1250212 24.9686905,19.187521 24.6561912,19.0625213 C24.343692,18.9375216 24.1874423,18.7083552 24.1874423,18.3750229 C24.1874423,17.5833579 24.0832756,16.7916937 23.8749431,16.0000286 C23.8332762,15.7500292 23.91661,15.5208628 24.1249425,15.3125302 L26.9374358,12.4375371 C27.9791003,11.4375395 28.4999321,10.2083754 28.4999321,8.7500459 C28.4999321,7.29171636 27.9895163,6.05213534 26.9686857,5.03130476 C25.9478551,4.01047418 24.7082741,3.50005841 23.2499446,3.50005841 C21.8827606,3.50005841 20.7169917,3.95782071 19.7526385,4.8733461 L14.8124647,9.75004351 C13.8124671,10.7500411 13.3124683,11.9792052 13.3124683,13.4375347 C13.3124683,14.8958643 13.8124671,16.1458613 14.8124647,17.1875258 C15.2291307,17.6041918 15.7082956,17.937524 16.2499613,18.1875234 C16.5832935,18.35419 16.7291271,18.6041894 16.6874602,18.9375216 C16.6041274,19.6875198 16.2916281,20.3333513 15.7499624,20.875017 L15.499963,21.1250164 C15.2082968,21.3750158 14.9166314,21.4166827 14.6249651,21.2500161 C13.7916341,20.8333501 13.0416359,20.2916854 12.3749705,19.62502 C11.333306,18.5833555 10.6041417,17.3646084 10.1874757,15.9687787 C9.77080972,14.572949 9.69789386,13.1667023 9.96872623,11.7500387 C10.2395586,10.3333751 10.8333072,9.06254515 11.749972,7.93754783 L11.9985508,7.66378812 C12.401012,7.23644746 13.2139839,6.41103608 14.4374656,5.18755439 L17.0624593,2.56256065 C18.1874566,1.43756333 19.4999535,0.677148158 20.9999499,0.281316087 C22.4999464,-0.114515985 23.9999428,-0.114515985 25.4999392,0.281316087 C26.9999356,0.677148158 28.3124325,1.43756333 29.4374298,2.56256065 Z" fill="currentColor" fill-rule="nonzero"></path>
    </g>
</svg>
