<?xml version="1.0" encoding="UTF-8"?>
<svg viewBox="0 0 36 35" version="1.1" xmlns="http://www.w3.org/2000/svg" xmlns:xlink="http://www.w3.org/1999/xlink">
    <!-- Generator: Sketch 59 (86127) - https://sketch.com -->
    <title>star</title>
    <desc>Created with Sketch.</desc>
    <path d="M16.1991777,1.44538058 C16.4648021,0.914131846 16.8521706,0.559966362 17.3612843,0.382883113 C17.8703981,0.205799864 18.3795107,0.205799864 18.8886245,0.382883113 C19.3977382,0.559966362 19.7851067,0.914131846 20.0507311,1.44538058 L24.367127,10.2109847 L34.0624164,11.6055126 C34.6379362,11.6940537 35.0917108,11.9596781 35.4237413,12.4023857 C35.7557717,12.8450933 35.910719,13.332071 35.8885839,13.8633197 C35.8664489,14.3945685 35.6561626,14.8594111 35.2577261,15.2578476 L28.2186803,22.0976751 L29.8788326,31.7929645 C29.9673737,32.3242132 29.8677646,32.8222589 29.5800052,33.2871015 C29.2922458,33.7519442 28.8827413,34.0507716 28.3514925,34.1835838 C27.8202438,34.316396 27.3111301,34.2499899 26.8241524,33.9843655 L18.1249544,29.4687513 L9.42575639,33.9843655 C8.93877873,34.2499899 8.42966502,34.316396 7.89841628,34.1835838 C7.36716755,34.0507716 6.95766298,33.7519442 6.66990359,33.2871015 C6.3821442,32.8222589 6.28253506,32.3242132 6.37107618,31.7929645 L8.03122847,22.0976751 L0.99218275,15.2578476 C0.5937462,14.8594111 0.383459905,14.3945685 0.361324879,13.8633197 C0.339189853,13.332071 0.494137063,12.8450933 0.826167521,12.4023857 C1.15819798,11.9596781 1.6119726,11.6940537 2.1874924,11.6055126 L11.8827818,10.2109847 L16.1991777,1.44538058 Z" id="star" fill="currentColor" fill-rule="nonzero"></path>
</svg>
