<?xml version="1.0" standalone="no"?>
<!DOCTYPE svg PUBLIC "-//W3C//DTD SVG 20010904//EN"
 "http://www.w3.org/TR/2001/REC-SVG-20010904/DTD/svg10.dtd">
<svg version="1.0" xmlns="http://www.w3.org/2000/svg"
 width="876.000000pt" height="876.000000pt" viewBox="0 0 876.000000 876.000000"
 preserveAspectRatio="xMidYMid meet">
<metadata>
Created by potrace 1.11, written by Peter Selinger 2001-2013
</metadata>
<g transform="translate(0.000000,876.000000) scale(0.100000,-0.100000)"
fill="#000000" stroke="none">
<path d="M0 4370 l0 -4370 4370 0 4370 0 0 4370 0 4370 -4370 0 -4370 0 0
-4370z m8580 0 l0 -4210 -4210 0 -4210 0 0 4210 0 4210 4210 0 4210 0 0 -4210z"/>
<path d="M1930 5605 l0 -1005 255 0 255 0 0 368 c0 202 3 377 6 390 l6 22 298
0 c164 0 305 3 314 6 14 5 16 33 16 203 0 140 -3 200 -12 209 -9 9 -92 12
-314 12 l-302 0 -6 23 c-9 34 -7 300 3 315 6 10 74 13 323 12 173 0 322 2 332
6 14 5 16 31 16 225 l0 219 -595 0 -595 0 0 -1005z"/>
<path d="M3405 6598 c-3 -7 -4 -458 -3 -1003 l3 -990 623 -3 622 -2 -2 217 -3
218 -367 3 -368 2 0 170 0 170 320 0 320 0 0 210 0 210 -320 0 -320 0 0 185 0
185 339 0 c300 0 340 2 345 16 8 20 8 388 0 408 -6 14 -67 16 -595 16 -463 0
-591 -3 -594 -12z"/>
<path d="M4950 5605 l0 -1005 240 0 240 0 2 613 3 612 40 -51 c22 -28 96 -127
165 -220 68 -93 194 -263 280 -379 133 -179 223 -301 394 -532 l31 -42 238 -1
237 0 0 1005 0 1005 -245 0 -245 0 0 -630 c0 -346 -3 -630 -7 -630 -10 1 30
-54 -399 551 -196 277 -389 549 -429 604 l-71 100 -237 3 -237 2 0 -1005z"/>
<path d="M1390 3795 c-114 -16 -167 -30 -262 -67 -107 -41 -262 -133 -289
-171 -4 -5 15 -48 41 -95 26 -48 71 -130 98 -182 28 -52 57 -96 64 -98 8 -1
43 16 78 39 36 23 98 58 138 77 65 31 86 36 173 40 92 4 102 3 153 -22 47 -23
59 -35 82 -82 21 -43 25 -62 20 -95 -8 -51 -38 -111 -85 -169 -20 -24 -97
-119 -171 -211 -74 -91 -187 -230 -250 -309 -63 -78 -120 -148 -125 -154 -20
-22 -130 -160 -147 -185 -15 -22 -18 -50 -18 -188 l0 -163 680 0 680 0 -2 213
-3 212 -332 5 -333 5 131 155 c72 85 178 211 236 279 158 186 226 299 263 435
39 146 16 313 -61 441 -73 122 -232 234 -379 268 -171 39 -234 43 -380 22z"/>
<path d="M3240 3794 c-199 -34 -312 -86 -446 -208 -145 -131 -254 -325 -299
-536 -34 -153 -30 -434 6 -590 66 -278 250 -532 464 -639 114 -56 296 -101
412 -101 99 0 284 42 383 87 152 69 300 218 404 407 34 61 79 195 102 301 23
109 24 399 1 505 -61 281 -181 480 -381 627 -112 82 -217 123 -385 149 -109
16 -158 16 -261 -2z m220 -470 c150 -42 248 -183 285 -409 18 -114 19 -168 1
-286 -30 -190 -89 -309 -192 -379 -170 -118 -390 -43 -484 164 -53 117 -64
176 -64 356 0 145 3 174 23 240 58 187 154 292 296 323 41 9 80 7 135 -9z"/>
<path d="M4950 3795 c-114 -16 -167 -30 -260 -66 -116 -44 -290 -153 -290
-180 0 -4 29 -61 64 -126 34 -65 78 -146 96 -180 19 -35 40 -63 47 -63 8 0 41
19 75 41 33 23 95 57 137 77 66 31 89 36 173 40 90 4 101 3 152 -22 47 -23 59
-35 82 -82 46 -95 25 -151 -125 -338 -149 -185 -223 -277 -301 -373 -212 -260
-307 -378 -328 -406 -21 -31 -22 -39 -20 -192 l3 -160 674 -3 c533 -2 676 0
683 10 4 7 8 99 8 204 0 148 -3 194 -13 203 -9 7 -119 12 -340 13 l-326 3 106
125 c58 69 137 163 176 210 39 47 74 87 77 90 56 52 175 220 223 317 113 223
77 498 -88 668 -65 68 -198 142 -300 168 -150 38 -240 43 -385 22z"/>
<path d="M6800 3794 c-211 -36 -343 -103 -482 -245 -192 -196 -288 -458 -288
-780 1 -333 98 -595 297 -795 141 -142 265 -203 497 -244 115 -20 233 -8 396
41 122 36 203 85 307 183 236 222 346 549 315 929 -21 250 -76 404 -208 579
-143 192 -322 296 -573 334 -109 16 -158 16 -261 -2z m220 -470 c113 -34 192
-111 241 -238 56 -146 71 -306 44 -473 -33 -203 -106 -324 -235 -389 -46 -24
-67 -28 -130 -28 -168 1 -282 106 -346 319 -24 81 -27 106 -27 250 -1 175 10
234 63 352 38 84 116 165 183 191 91 36 130 39 207 16z"/>
</g>
</svg>
