<?xml version="1.0" encoding="UTF-8"?>
<svg viewBox="0 0 140 23" version="1.1" xmlns="http://www.w3.org/2000/svg" xmlns:xlink="http://www.w3.org/1999/xlink">
    <!-- Generator: Sketch 55.1 (78136) - https://sketchapp.com -->
    <title>Slice 1</title>
    <desc>Created with Sketch.</desc>
    <g id="Page-1" stroke="none" stroke-width="1" fill="none" fill-rule="evenodd">
        <g id="autodesk" fill-rule="nonzero">
            <path d="M5.9,17.1 L1.8,17.1 C0.3,17.1 -0.1,16.1 0.2,15.3 L0.2,15.4 C1.66533454e-16,16.1 0.3,16.4 0.5,16.9 C1.2,18.3 3.4,22.3 3.4,22.3 C3.6,22.8 4,23 4.6,23 C5.8,23 7.8,21.7 7.8,21.7 L15.2,17.1 L5.9,17.1 L5.9,17.1 Z" id="Path" fill="#000000"></path>
            <path d="M7.4,0.1 C6.6,0.1 6.4,0.6 6.3,0.7 L0.2,15.2 C-0.1,16 0.2,17.1 1.8,17.1 L5.9,17.1 L10.6,6 C9.3,3 8.4,0.8 8.4,0.8 C8.3,0.7 8.1,0.1 7.4,0.1 Z" id="Path" fill="#000000"></path>
            <path d="M14.8,0.6 C14.7,0.5 14.5,0 13.8,0 L7.4,0 C6.7,0 6.5,0.4 6.4,0.5 C6.4,0.5 6.6,0 7.4,0 C8.1,0 8.4,0.6 8.4,0.7 C8.4,0.7 9.3,2.9 10.6,5.9 C13.4,12.5 17.8,23 17.8,23 L24.3,23 C24.3,23 14.9,0.8 14.8,0.6 Z" id="Path" fill="#000000"></path>
            <path d="M42.6,17.1 L40.1,17.1 L38.7,13.9 L32.4,13.9 L31,17.1 L28.6,17.1 L34.5,3.7 L36.7,3.7 L42.6,17.1 Z M35.6,6.5 L33.3,11.8 L37.9,11.8 L35.6,6.5 L35.6,6.5 Z M64.3,17.1 L61.9,17.1 L61.9,6 L57.7,6 L57.7,3.8 L68.7,3.8 L67.8,6 L64.3,6 L64.3,17.1 Z M109.1,6 L102,6 L102,9.4 L106.6,9.4 L106.6,11.5 L102,11.5 L102,15 L109.1,15 L109.1,17.1 L99.6,17.1 L99.6,3.8 L109.1,3.8 L109.1,6 Z M125.9,17.1 L123.7,17.1 L123.7,3.8 L125.9,3.8 L125.9,17.1 Z M116.4,5.7 C115,5.7 113.9,6.1 113.9,7 C113.9,8.1 114.6,8.4 117.1,9.2 C119.9,10.1 121.3,11 121.3,13.3 C121.3,15.8 119.3,17.3 116.4,17.3 C114.4,17.3 112.6,16.6 111.2,15.4 L112.1,13.3 C113.4,14.4 114.9,15.1 116.5,15.1 C117.9,15.1 119,14.4 119,13.4 C119,12.5 118.5,12 116.1,11.2 C113.3,10.3 111.6,9.3 111.6,7.1 C111.6,4.8 113.7,3.6 116.4,3.6 C119.1,3.6 120.6,4.6 120.8,4.7 L120,6.6 C119.3,6.3 118.2,5.7 116.4,5.7 L116.4,5.7 Z M128.8,10.2 L134.7,3.8 L131.9,3.8 L125.9,10.2 L132.5,17.1 L135.4,17.1 L128.8,10.2 Z M75.9,3.6 C72.1,3.6 69,6.7 69,10.5 C69,14.3 72.1,17.4 75.9,17.4 C79.7,17.4 82.8,14.3 82.8,10.5 C82.8,6.6 79.7,3.6 75.9,3.6 Z M75.9,15.2 C73.3,15.2 71.4,13.1 71.4,10.5 C71.4,7.9 73.3,5.8 75.9,5.8 C78.5,5.8 80.4,7.9 80.4,10.5 C80.4,13.1 78.5,15.2 75.9,15.2 Z M90.3,3.8 L85.2,3.8 L85.2,17.1 L90.3,17.1 C94.1,17.1 97.2,14.2 97.2,10.4 C97.2,6.6 94.1,3.8 90.3,3.8 Z M90.3,15 L87.6,15 L87.6,6 L90.3,6 C92.9,6 94.8,7.9 94.8,10.5 C94.9,13.1 93,15 90.3,15 Z M55.1,11.2 C55.1,15.2 52.8,17.3 49.4,17.3 C46,17.3 43.7,15.2 43.7,11.2 L43.7,3.8 L46,3.8 L46,11.5 C46,13.8 47.4,15.2 49.4,15.2 C51.4,15.2 52.8,13.8 52.8,11.5 L52.8,3.8 L55.2,3.8 L55.2,11.2 L55.1,11.2 Z" id="Shape" fill="#231F20"></path>
            <g id="Group" transform="translate(136.000000, 13.000000)" fill="#231F20">
                <path d="M3.9,2.4 C3.9,1.5 3.1,0.7 2.2,0.7 C1.3,0.7 0.5,1.5 0.5,2.4 C0.5,3.3 1.3,4.1 2.2,4.1 C3.1,4.1 3.9,3.4 3.9,2.4 L3.9,2.4 Z M3.6,2.4 C3.6,3.2 3,3.9 2.2,3.9 C1.4,3.9 0.8,3.3 0.8,2.4 C0.8,1.6 1.4,0.9 2.2,0.9 C3,1 3.6,1.6 3.6,2.4 L3.6,2.4 Z" id="Shape"></path>
                <path d="M2.9,3.3 L2.5,2.7 C2.4,2.6 2.4,2.5 2.3,2.5 C2.6,2.5 2.8,2.3 2.8,2 C2.8,1.7 2.6,1.5 2.3,1.5 L1.7,1.5 L1.7,3.3 L2,3.3 L2,2.5 C2.1,2.5 2.2,2.5 2.3,2.7 L2.7,3.3 L2.9,3.3 L2.9,3.3 Z M2.5,2 C2.5,2.3 2.3,2.3 2.1,2.3 L1.9,2.3 L1.9,1.7 L2.2,1.7 C2.4,1.7 2.5,1.9 2.5,2 L2.5,2 Z" id="Shape"></path>
            </g>
        </g>
    </g>
</svg>
