<?xml version="1.0" encoding="utf-8"?>
<!-- Generator: Adobe Illustrator 21.1.0, SVG Export Plug-In . SVG Version: 6.00 Build 0)  -->
<svg version="1.1" id="Layer_1" xmlns="http://www.w3.org/2000/svg" xmlns:xlink="http://www.w3.org/1999/xlink" x="0px" y="0px"
	 viewBox="0 0 1217.5 233.8" style="enable-background:new 0 0 1217.5 233.8;" xml:space="preserve">
<style type="text/css">
	.st0{fill:#000;}
</style>
<path class="st0" d="M400.4,55.9c-49.1,0-88.9,39.8-88.9,89c0,49.1,39.8,88.9,88.9,88.9c49.1,0,88.9-39.8,88.9-88.9
	C489.4,95.8,449.5,55.9,400.4,55.9 M400.4,189.3c-24.5,0-44.5-19.9-44.5-44.4c0-24.6,19.9-44.5,44.5-44.5
	c24.5,0,44.5,19.9,44.5,44.5C444.9,169.4,425,189.3,400.4,189.3z"/>
<path class="st0" d="M1217.5,44.8V0.3c-24.6,0-44.5,19.9-44.5,44.5v23.1c-13.1-7.6-28.3-12-44.4-12c-49.1,0-89,39.8-89,89
	c0,49.1,39.8,88.9,89,88.9c49.1,0,88.9-39.8,88.9-88.9c0-0.1,0-0.2,0-0.3 M1128.6,189.3c-24.5,0-44.5-19.9-44.5-44.4
	c0-24.5,19.9-44.5,44.5-44.5c24.6,0,44.5,19.9,44.5,44.5C1173,169.4,1153.1,189.3,1128.6,189.3z"/>
<path class="st0" d="M811.9,100.4h44.5V55.9h-44.5v0.1h-0.1V11.4c-24.6,0-44.5,19.9-44.5,44.5h0.1v88.7c0,0.1,0,0.1,0,0.2
	c0,49.1,39.8,89,88.9,89v-44.5h0c-24.5,0-44.5-19.9-44.5-44.4h0V100.4z"/>
<path class="st0" d="M583.9,189.3c-24.5,0-44.5-19.9-44.5-44.4l0-144.5c-24.6,0-44.5,19.9-44.5,44.5h0.1v99.8c0,0.1,0,0.2,0,0.3
	c0,49.1,39.8,88.9,88.9,88.9V189.3z"/>
<path class="st0" d="M177.9,144.8"/>
<path class="st0" d="M177.9,144.8l0-0.2c-0.1-49-39.9-88.7-89-88.7C39.8,55.9,0,95.7,0,144.8c0,49.1,39.8,88.9,88.9,88.9h0v-44.5h0
	c-24.5,0-44.5-19.9-44.5-44.4c0-24.5,19.9-44.5,44.5-44.5c24.4,0,44.3,19.8,44.4,44.2l0,0.3h-0.2l-44.2,0
	c0,24.5,19.8,44.3,44.2,44.4L177.9,144.8z"/>
<path class="st0" d="M1034.4,144.8l0-0.2c-0.1-49-39.9-88.7-89-88.7c-49.1,0-88.9,39.8-88.9,89c0,49.1,39.8,88.9,88.9,88.9h0v-44.5
	h0c-24.5,0-44.5-19.9-44.5-44.4c0-24.5,19.9-44.5,44.5-44.5c24.4,0,44.3,19.8,44.4,44.2l0,0.3h-0.2l-44.2,0
	c0,24.5,19.8,44.3,44.2,44.4L1034.4,144.8z"/>
<path class="st0" d="M319.3,55.9L319.3,55.9c-19.1,0-35.2,12.2-41.4,29h-0.3l-32.9,82.2l-32.6-81.4h0c-6-17.2-22.1-29.5-41.4-29.7v0
	h-15l66.7,177.9H267l66.7-177.9H319.3z"/>
<path class="st0" d="M761.7,100.4V55.9c-24.5,0-44.5,19.9-44.5,44.4h0v44.5c0,24.6-19.9,44.5-44.5,44.5c-24.6,0-44.5-19.9-44.5-44.5
	v-44.5h0c0-24.6-19.9-44.4-44.5-44.4v44.4h0v44.2c0,0.1,0,0.1,0,0.2c0,49.1,39.8,89,88.9,89c49.1,0,88.9-39.8,88.9-89h0L761.7,100.4
	"/>
<path class="st0" d="M545,0.3c0.1,0,0.2,0,0.3,0c-0.1-0.1-0.2-0.2-0.3-0.3C545,0.1,545,0.2,545,0.3z"/>
<path class="st0" d="M545.4,0.4C545.4,0.3,545.4,0.3,545.4,0.4C545.4,0.3,545.3,0.3,545.4,0.4C545.3,0.3,545.3,0.3,545.4,0.4z"/>
</svg>
