<?xml version="1.0" encoding="UTF-8"?>
<svg width="201px" height="201px" viewBox="0 0 201 201" version="1.1" xmlns="http://www.w3.org/2000/svg" xmlns:xlink="http://www.w3.org/1999/xlink">
    <!-- Generator: Sketch 61 (89581) - https://sketch.com -->
    <title>INVIQA-R-Logo-2017</title>
    <desc>Created with Sketch.</desc>
    <g id="Page-1" stroke="none" stroke-width="1" fill="none" fill-rule="evenodd">
        <g id="INVIQA-R-Logo-2017" fill-rule="nonzero">
            <g id="Layer_1" fill="#000000">
                <circle id="Oval" cx="100.8" cy="100.2" r="99.9"></circle>
            </g>
            <g id="Layer_4" transform="translate(22.000000, 86.000000)" fill="#FFFFFF">
                <g id="Group" transform="translate(0.000000, 1.000000)">
                    <polygon id="Path" points="5.3 24.7 0.6 24.7 0.6 0 5.3 0"></polygon>
                    <polygon id="Path" points="22.9 24.7 18.2 24.7 18.2 0 18.2 0 18.2 0 34.8 14.6 34.8 0 39.5 0 39.5 24.7 39.5 24.7 22.9 10.9"></polygon>
                    <polygon id="Path" points="62 15.2 69.4 0 74.5 0 62 24.7 49.5 0 54.6 0"></polygon>
                    <polygon id="Path" points="84.4 24.7 84.4 0 89.1 0 89.1 24.7"></polygon>
                    <path d="M147.2,0 L159.2,24.7 L154.3,24.7 L152.5,20.8 L141.8,20.8 L140,24.7 L135.1,24.7 L147.2,0 Z M147.2,9 L143.6,16.9 L150.8,16.9 L147.2,9 Z" id="Shape"></path>
                    <path d="M123.9,31.1 L118.6,31.1 L115.5,25.7 C115,25.8 114.4,25.8 113.9,25.8 C106.8,25.8 101,20 101,12.9 C101,5.8 106.8,-2.84217094e-14 113.9,-2.84217094e-14 C121,-2.84217094e-14 126.8,5.8 126.8,12.9 C126.8,17.9 123.9,22.3 119.7,24.4 L123.9,31.1 Z M113.9,4.7 C109.4,4.7 105.7,8.4 105.7,12.9 C105.7,17.4 109.4,21.1 113.9,21.1 C118.4,21.1 122.1,17.4 122.1,12.9 C122.2,8.4 118.5,4.7 113.9,4.7 Z" id="Shape"></path>
                </g>
                <path d="M157.6,0.6 C158,0.6 158.4,0.7 158.8,0.9 C159.2,1.1 159.5,1.4 159.7,1.8 C159.9,2.2 160,2.6 160,3 C160,3.4 159.9,3.8 159.7,4.2 C159.5,4.6 159.2,4.9 158.8,5.1 C158.4,5.3 158,5.4 157.6,5.4 C157.2,5.4 156.8,5.3 156.4,5.1 C156,4.9 155.7,4.6 155.5,4.2 C155.3,3.8 155.2,3.4 155.2,3 C155.2,2.6 155.3,2.2 155.5,1.8 C155.7,1.4 156,1.1 156.4,0.9 C156.8,0.7 157.2,0.6 157.6,0.6 Z M157.6,1 C157.3,1 156.9,1.1 156.6,1.3 C156.3,1.5 156,1.7 155.8,2.1 C155.6,2.4 155.5,2.8 155.5,3.1 C155.5,3.5 155.6,3.8 155.8,4.1 C156,4.4 156.2,4.7 156.6,4.9 C156.9,5.1 157.3,5.2 157.6,5.2 C158,5.2 158.3,5.1 158.6,4.9 C158.9,4.7 159.2,4.5 159.4,4.1 C159.6,3.8 159.7,3.4 159.7,3.1 C159.7,2.7 159.6,2.4 159.4,2.1 C159.2,1.8 159,1.5 158.6,1.3 C158.3,1.1 157.9,1 157.6,1 Z M156.5,4.4 L156.5,1.7 L157.4,1.7 C157.7,1.7 157.9,1.7 158.1,1.8 C158.3,1.9 158.4,1.9 158.4,2.1 C158.5,2.2 158.5,2.4 158.5,2.5 C158.5,2.7 158.4,2.9 158.3,3 C158.2,3.1 158,3.2 157.7,3.2 C157.8,3.2 157.9,3.3 157.9,3.3 C158,3.4 158.1,3.6 158.3,3.8 L158.6,4.3 L158.1,4.3 L158,4 C157.8,3.7 157.7,3.5 157.6,3.4 C157.5,3.3 157.4,3.3 157.3,3.3 L157,3.3 L157,4.4 L156.5,4.4 Z M156.9,2.9 L157.4,2.9 C157.6,2.9 157.8,2.9 157.9,2.8 C158,2.7 158,2.6 158,2.5 C158,2.4 158,2.4 157.9,2.3 C157.9,2.2 157.8,2.2 157.7,2.2 C157.6,2.2 157.5,2.2 157.3,2.2 L156.8,2.2 L156.8,2.9 L156.9,2.9 Z" id="Shape"></path>
            </g>
        </g>
    </g>
</svg>
