<?xml version="1.0" encoding="utf-8"?>
<!-- Generator: Adobe Illustrator 21.0.0, SVG Export Plug-In . SVG Version: 6.00 Build 0)  -->
<svg version="1.1" id="Layer_1" xmlns="http://www.w3.org/2000/svg" xmlns:xlink="http://www.w3.org/1999/xlink" x="0px" y="0px"
	 viewBox="0 0 131.9 66.6" style="enable-background:new 0 0 131.9 66.6;" xml:space="preserve">
<style type="text/css">
	.st0{fill:#918F8B;}
	.st1{fill:#2F2829;}
</style>
<g>
	<g>
		<path class="st0" d="M49.2,31.3L26.1,8.3l-21,21c-1.1,1.1-3,1.1-4.1,0c-1.1-1.1-1.1-3,0-4.1L26.1,0l23.1,23.1l21-21
			c1.1-1.1,3-1.1,4.1,0c1.1,1.1,1.1,3,0,4.1L49.2,31.3z"/>
	</g>
	<g>
		<path class="st1" d="M25.7,34.8c-1.2,0-2.3,1-2.3,2.3c0,1.2,1,2.3,2.3,2.3c1.2,0,2.3-1,2.3-2.3C28,35.8,27,34.8,25.7,34.8z"/>
		<path class="st1" d="M25.7,44.3C24.8,44.3,24,45,24,46v19c0,0.9,0.8,1.7,1.7,1.7c0.9,0,1.7-0.8,1.7-1.7V46
			C27.4,45,26.7,44.3,25.7,44.3z"/>
		<path class="st1" d="M9.1,44.3c-2,0-3.8,0.6-5.3,1.7v0c-0.2,0.1-0.4,0-0.4-0.2h0c-0.1-0.8-0.8-1.5-1.7-1.5C0.8,44.3,0,45,0,46v19
			c0,0.9,0.8,1.7,1.7,1.7c0.9,0,1.7-0.8,1.7-1.7V53.4c0-3.1,2.6-5.7,5.7-5.7c3.1,0,5.7,2.6,5.7,5.7v11.6c0,0.9,0.8,1.7,1.7,1.7
			c0.9,0,1.7-0.8,1.7-1.7V53.4C18.2,48.4,14.1,44.3,9.1,44.3z"/>
		<path class="st1" d="M130.8,59.3c-0.8-0.4-1.8-0.1-2.3,0.7c-1.1,2-3.2,3.2-5.4,3.2c-3.4,0-6.2-2.8-6.2-6.2v-0.6
			c0-0.3,0.2-0.6,0.6-0.6h12.7c0,0,0,0,0.1,0c1.8,0,1.7-2.1,1.6-2.2c-0.3-4.8-4.3-9.3-9.2-9.3c-5.1,0-9.2,4.1-9.2,9.2
			c0,0,0,3.6,0,3.6c0,5.3,4.3,9.6,9.6,9.6c3.5,0,6.8-1.9,8.4-5C132,60.8,131.7,59.7,130.8,59.3z M122.7,47.7c2.5,0,5.2,1.7,5.6,4.6
			c0,0.2-0.1,0.5-0.5,0.5v0l-10.3,0c-0.4,0-0.5-0.3-0.5-0.5C117.3,49.2,120.2,47.7,122.7,47.7z"/>
		<path class="st1" d="M81.2,44.3c-1.9,0-3.7,0.6-5.2,1.6v0c-0.3,0.2-0.6,0.1-0.6-0.2v-9.2c0-0.9-0.8-1.7-1.7-1.7
			c-0.9,0-1.7,0.8-1.7,1.7v28.5c0,0.9,0.8,1.7,1.7,1.7c0.9,0,1.6-0.7,1.7-1.6h0c0-0.2,0.3-0.3,0.6,0v0c1.5,1,3.3,1.6,5.2,1.6
			c5.1,0,9.2-4.1,9.2-9.2l0,0v0v-3.9C90.4,48.4,86.3,44.3,81.2,44.3z M87,57.4L87,57.4L87,57.4c0,3.2-2.6,5.8-5.8,5.8
			c-3.2,0-5.8-2.6-5.8-5.8v-4c0-3.2,2.6-5.8,5.8-5.8c3.2,0,5.8,2.6,5.8,5.8V57.4z"/>
		<path class="st1" d="M57.1,44.3c-2.9,0-5.5,1.4-7.1,3.5v0c-0.1,0.2-0.4,0.2-0.5,0v0c-1.7-2.1-4.2-3.5-7.1-3.5
			c-1.9,0-3.6,0.6-5.1,1.6v0c-0.4,0.2-0.6,0.2-0.6,0h0c-0.1-0.9-0.8-1.5-1.7-1.5c-0.9,0-1.7,0.8-1.7,1.7v19c0,0.9,0.8,1.7,1.7,1.7
			c0.9,0,1.7-0.8,1.7-1.7V53.4c0-3.1,2.6-5.7,5.7-5.7c3.1,0,5.7,2.6,5.7,5.7v11.6c0,0.9,0.8,1.7,1.7,1.7c0.9,0,1.7-0.8,1.7-1.7
			c0,0,0-11.5,0-11.6c0-3.1,2.6-5.7,5.7-5.7c3.1,0,5.7,2.6,5.7,5.7v11.6c0,0.9,0.8,1.7,1.7,1.7c0.9,0,1.7-0.8,1.7-1.7V53.4
			C66.2,48.4,62.1,44.3,57.1,44.3z"/>
		<path class="st1" d="M108.8,57.1c-0.9,0-1.7,0.8-1.7,1.7c0,2.5-2,4.5-4.5,4.5c-2.5,0-4.5-2-4.5-4.5V36.5c0-0.9-0.8-1.7-1.7-1.7
			c-0.9,0-1.7,0.8-1.7,1.7v22.3c0,4.3,3.5,7.9,7.9,7.9c4.3,0,7.9-3.5,7.9-7.9C110.5,57.8,109.7,57.1,108.8,57.1z"/>
	</g>
</g>
</svg>
