<svg viewBox="0 0 140 23" xmlns="http://www.w3.org/2000/svg"><g fill-rule="nonzero" fill="none"><path d="M5.9 17.1H1.8c-1.5 0-1.9-1-1.6-1.8v.1c-.2.7.1 1 .3 1.5.7 1.4 2.9 5.4 2.9 5.4.2.5.6.7 1.2.7 1.2 0 3.2-1.3 3.2-1.3l7.4-4.6H5.9z" fill="#000"/><path d="M7.4.1c-.8 0-1 .5-1.1.6L.2 15.2c-.3.8 0 1.9 1.6 1.9h4.1L10.6 6C9.3 3 8.4.8 8.4.8c-.1-.1-.3-.7-1-.7z" fill="#000"/><path d="M14.8.6c-.1-.1-.3-.6-1-.6H7.4c-.7 0-.9.4-1 .5 0 0 .2-.5 1-.5.7 0 1 .6 1 .7 0 0 .9 2.2 2.2 5.2 2.8 6.6 7.2 17.1 7.2 17.1h6.5S14.9.8 14.8.6z" fill="#000"/><path d="M42.6 17.1h-2.5l-1.4-3.2h-6.3L31 17.1h-2.4l5.9-13.4h2.2l5.9 13.4zm-7-10.6l-2.3 5.3h4.6l-2.3-5.3zm28.7 10.6h-2.4V6h-4.2V3.8h11L67.8 6h-3.5v11.1zM109.1 6H102v3.4h4.6v2.1H102V15h7.1v2.1h-9.5V3.8h9.5V6zm16.8 11.1h-2.2V3.8h2.2v13.3zm-9.5-11.4c-1.4 0-2.5.4-2.5 1.3 0 1.1.7 1.4 3.2 2.2 2.8.9 4.2 1.8 4.2 4.1 0 2.5-2 4-4.9 4-2 0-3.8-.7-5.2-1.9l.9-2.1c1.3 1.1 2.8 1.8 4.4 1.8 1.4 0 2.5-.7 2.5-1.7 0-.9-.5-1.4-2.9-2.2-2.8-.9-4.5-1.9-4.5-4.1 0-2.3 2.1-3.5 4.8-3.5 2.7 0 4.2 1 4.4 1.1l-.8 1.9c-.7-.3-1.8-.9-3.6-.9zm12.4 4.5l5.9-6.4h-2.8l-6 6.4 6.6 6.9h2.9l-6.6-6.9zM75.9 3.6c-3.8 0-6.9 3.1-6.9 6.9 0 3.8 3.1 6.9 6.9 6.9 3.8 0 6.9-3.1 6.9-6.9 0-3.9-3.1-6.9-6.9-6.9zm0 11.6c-2.6 0-4.5-2.1-4.5-4.7s1.9-4.7 4.5-4.7 4.5 2.1 4.5 4.7-1.9 4.7-4.5 4.7zM90.3 3.8h-5.1v13.3h5.1c3.8 0 6.9-2.9 6.9-6.7 0-3.8-3.1-6.6-6.9-6.6zm0 11.2h-2.7V6h2.7c2.6 0 4.5 1.9 4.5 4.5.1 2.6-1.8 4.5-4.5 4.5zm-35.2-3.8c0 4-2.3 6.1-5.7 6.1-3.4 0-5.7-2.1-5.7-6.1V3.8H46v7.7c0 2.3 1.4 3.7 3.4 3.7s3.4-1.4 3.4-3.7V3.8h2.4v7.4h-.1z" fill="#231F20"/><g fill="#231F20"><path d="M139.9 15.4c0-.9-.8-1.7-1.7-1.7-.9 0-1.7.8-1.7 1.7 0 .9.8 1.7 1.7 1.7.9 0 1.7-.7 1.7-1.7zm-.3 0c0 .8-.6 1.5-1.4 1.5-.8 0-1.4-.6-1.4-1.5 0-.8.6-1.5 1.4-1.5.8.1 1.4.7 1.4 1.5z"/><path d="M138.9 16.3l-.4-.6c-.1-.1-.1-.2-.2-.2.3 0 .5-.2.5-.5s-.2-.5-.5-.5h-.6v1.8h.3v-.8c.1 0 .2 0 .3.2l.4.6h.2zm-.4-1.3c0 .3-.2.3-.4.3h-.2v-.6h.3c.2 0 .3.2.3.3z"/></g></g></svg>