<svg version="1.1" id="Layer_1" xmlns="http://www.w3.org/2000/svg" x="0" y="0" viewBox="0 0 1217.5 233.8" xml:space="preserve"><style>.st0{fill:#000}</style><path class="st0" d="M400.4 55.9c-49.1 0-88.9 39.8-88.9 89 0 49.1 39.8 88.9 88.9 88.9 49.1 0 88.9-39.8 88.9-88.9.1-49.1-39.8-89-88.9-89m0 133.4c-24.5 0-44.5-19.9-44.5-44.4 0-24.6 19.9-44.5 44.5-44.5 24.5 0 44.5 19.9 44.5 44.5 0 24.5-19.9 44.4-44.5 44.4zM1217.5 44.8V.3c-24.6 0-44.5 19.9-44.5 44.5v23.1c-13.1-7.6-28.3-12-44.4-12-49.1 0-89 39.8-89 89 0 49.1 39.8 88.9 89 88.9 49.1 0 88.9-39.8 88.9-88.9v-.3m-88.9 44.7c-24.5 0-44.5-19.9-44.5-44.4s19.9-44.5 44.5-44.5 44.5 19.9 44.5 44.5c-.1 24.5-20 44.4-44.5 44.4zM811.9 100.4h44.5V55.9h-44.5v.1h-.1V11.4c-24.6 0-44.5 19.9-44.5 44.5h.1v88.9c0 49.1 39.8 89 88.9 89v-44.5c-24.5 0-44.5-19.9-44.5-44.4v-44.5zM583.9 189.3c-24.5 0-44.5-19.9-44.5-44.4V.4c-24.6 0-44.5 19.9-44.5 44.5h.1V145c0 49.1 39.8 88.9 88.9 88.9v-44.6zM177.9 144.8v-.2c-.1-49-39.9-88.7-89-88.7S0 95.7 0 144.8c0 49.1 39.8 88.9 88.9 88.9v-44.5c-24.5 0-44.5-19.9-44.5-44.4s19.9-44.5 44.5-44.5c24.4 0 44.3 19.8 44.4 44.2v.3H88.9c0 24.5 19.8 44.3 44.2 44.4l44.8-44.4zM1034.4 144.8v-.2c-.1-49-39.9-88.7-89-88.7s-88.9 39.8-88.9 89c0 49.1 39.8 88.9 88.9 88.9v-44.5c-24.5 0-44.5-19.9-44.5-44.4s19.9-44.5 44.5-44.5c24.4 0 44.3 19.8 44.4 44.2v.3H945.4c0 24.5 19.8 44.3 44.2 44.4l44.8-44.5zM319.3 55.9c-19.1 0-35.2 12.2-41.4 29h-.3l-32.9 82.2-32.6-81.4c-6-17.2-22.1-29.5-41.4-29.7h-15l66.7 177.9H267L333.7 56h-14.4zM761.7 100.4V55.9c-24.5 0-44.5 19.9-44.5 44.4v44.5c0 24.6-19.9 44.5-44.5 44.5s-44.5-19.9-44.5-44.5v-44.5c0-24.6-19.9-44.4-44.5-44.4v88.8c0 49.1 39.8 89 88.9 89 49.1 0 88.9-39.8 88.9-89l.2-44.3M545 .3h.3L545 0v.3zM545.4.4c0-.1 0-.1 0 0 0-.1-.1-.1 0 0-.1-.1-.1-.1 0 0z"/></svg>