<?xml version="1.0" encoding="UTF-8"?>
<svg viewBox="0 0 559 168" preserveAspectRatio="xMidYMid meet" version="1.1" xmlns="http://www.w3.org/2000/svg" xmlns:xlink="http://www.w3.org/1999/xlink">
    <!-- Generator: Sketch 55.1 (78136) - https://sketchapp.com -->
    <title>spotify</title>
    <desc>Created with Sketch.</desc>
    <g id="spotify" fill="#000000" fill-rule="nonzero">
        <path d="M83.996,0.277 C37.747,0.277 0.253,37.77 0.253,84.019 C0.253,130.273 37.747,167.764 83.996,167.764 C130.247,167.764 167.739,130.273 167.739,84.019 C167.739,37.773 130.249,0.281 83.995,0.281 L83.996,0.277 Z M122.4,121.057 C120.896,123.524 117.682,124.297 115.223,122.794 C95.558,110.775 70.806,108.06 41.656,114.719 C38.847,115.363 36.047,113.602 35.407,110.794 C34.764,107.985 36.517,105.185 39.333,104.545 C71.233,97.252 98.596,100.391 120.669,113.879 C123.129,115.389 123.909,118.599 122.399,121.059 L122.4,121.057 Z M132.65,98.258 C130.756,101.331 126.738,102.295 123.669,100.408 C101.164,86.574 66.847,82.567 40.222,90.649 C36.769,91.692 33.122,89.746 32.074,86.299 C31.034,82.846 32.981,79.206 36.428,78.156 C66.841,68.928 104.649,73.398 130.499,89.283 C133.569,91.173 134.539,95.193 132.649,98.259 L132.65,98.258 Z M133.53,74.514 C106.536,58.483 62.01,57.009 36.241,64.83 C32.103,66.085 27.727,63.749 26.473,59.611 C25.219,55.471 27.553,51.098 31.694,49.84 C61.275,40.86 110.45,42.595 141.524,61.042 C145.246,63.251 146.467,68.058 144.261,71.775 C142.061,75.497 137.241,76.724 133.531,74.514 L133.53,74.514 Z" id="Shape"></path>
        <path d="M228.09,77.586 C213.631,74.138 211.057,71.718 211.057,66.633 C211.057,61.829 215.58,58.596 222.306,58.596 C228.826,58.596 235.291,61.051 242.069,66.105 C242.274,66.258 242.531,66.319 242.784,66.279 C243.037,66.241 243.261,66.102 243.409,65.893 L250.469,55.941 C250.759,55.531 250.68,54.966 250.289,54.653 C242.222,48.18 233.138,45.033 222.52,45.033 C206.908,45.033 196.003,54.402 196.003,67.807 C196.003,82.182 205.41,87.272 221.666,91.201 C235.502,94.388 237.837,97.058 237.837,101.831 C237.837,107.12 233.115,110.408 225.516,110.408 C217.076,110.408 210.192,107.565 202.491,100.896 C202.3,100.731 202.038,100.656 201.796,100.67 C201.541,100.691 201.308,100.809 201.146,101.004 L193.23,110.425 C192.898,110.816 192.94,111.4 193.324,111.738 C202.284,119.737 213.304,123.962 225.196,123.962 C242.019,123.962 252.890186,114.77 252.890186,100.543 C252.92,88.533 245.73,81.883 228.12,77.599 L228.09,77.586 Z" id="Path"></path>
        <path d="M290.95,63.326 C283.658,63.326 277.677,66.198 272.745,72.083 L272.745,65.459 C272.745,64.936 272.321,64.51 271.799,64.51 L258.852,64.51 C258.329,64.51 257.906,64.936 257.906,65.459 L257.906,139.061 C257.906,139.584 258.329,140.01 258.852,140.01 L271.799,140.01 C272.321,140.01 272.745,139.584 272.745,139.061 L272.745,115.828 C277.678,121.364 283.66,124.069 290.95,124.069 C304.499,124.069 318.215044,113.639 318.215044,93.701 C318.235,73.758 304.515,63.325 290.965,63.325 L290.95,63.326 Z M303.16,93.701 C303.16,103.854 296.906,110.939 287.951,110.939 C279.098,110.939 272.42,103.532 272.42,93.701 C272.42,83.871 279.098,76.463 287.951,76.463 C296.761,76.462 303.161,83.71 303.161,93.7 L303.16,93.701 Z" id="Shape"></path>
        <path d="M353.37,63.326 C335.921,63.326 322.251,76.762 322.251,93.918 C322.251,110.887 335.827,124.182 353.156,124.182 C370.667,124.182 384.379,110.791 384.379,93.701 C384.379,76.67 370.759,63.328 353.369,63.328 L353.37,63.326 Z M353.37,111.04 C344.089,111.04 337.092,103.583 337.092,93.696 C337.092,83.767 343.847,76.562 353.156,76.562 C362.497,76.562 369.541,84.019 369.541,93.913 C369.541,103.84 362.741,111.04 353.371,111.04 L353.37,111.04 Z" id="Shape"></path>
        <path d="M421.64,64.51 L407.393,64.51 L407.393,49.944 C407.393,49.422 406.971,48.996 406.448,48.996 L393.503,48.996 C392.979,48.996 392.554,49.422 392.554,49.944 L392.554,64.51 L386.329,64.51 C385.808,64.51 385.386,64.936 385.386,65.459 L385.386,76.586 C385.386,77.108 385.808,77.535 386.329,77.535 L392.554,77.535 L392.554,106.326 C392.554,117.961 398.345,123.86 409.766,123.86 C414.41,123.86 418.263,122.901 421.894,120.842 C422.189,120.677 422.372,120.359 422.372,120.021 L422.372,109.425 C422.372,109.098 422.202,108.789 421.922,108.618 C421.64,108.441 421.289,108.432 421,108.575 C418.506,109.83 416.095,110.409 413.4,110.409 C409.246,110.409 407.393,108.523 407.393,104.296 L407.393,77.54 L421.64,77.54 C422.163,77.54 422.584,77.114 422.584,76.591 L422.584,65.465 C422.604,64.942 422.184,64.516 421.654,64.516 L421.64,64.51 Z" id="Path"></path>
        <path d="M471.28,64.567 L471.28,62.778 C471.28,57.515 473.298,55.168 477.824,55.168 C480.523,55.168 482.691,55.704 485.119,56.514 C485.418,56.608 485.73,56.561 485.973,56.382 C486.223,56.203 486.364,55.916 486.364,55.612 L486.364,44.702 C486.364,44.285 486.096,43.916 485.694,43.793 C483.129,43.03 479.847,42.247 474.933,42.247 C462.975,42.247 456.654,48.981 456.654,61.714 L456.654,64.454 L450.434,64.454 C449.912,64.454 449.484,64.88 449.484,65.402 L449.484,76.586 C449.484,77.108 449.912,77.535 450.434,77.535 L456.654,77.535 L456.654,121.944 C456.654,122.467 457.076,122.893 457.598,122.893 L470.545,122.893 C471.068,122.893 471.494,122.467 471.494,121.944 L471.494,77.538 L483.582,77.538 L502.099,121.936 C499.997,126.601 497.93,127.529 495.108,127.529 C492.827,127.529 490.425,126.848 487.969,125.504 C487.738,125.377 487.464,125.356 487.215,125.433 C486.968,125.52 486.76,125.704 486.655,125.944 L482.267,135.571 C482.058,136.026 482.237,136.56 482.675,136.796 C487.256,139.277 491.391,140.336 496.502,140.336 C506.062,140.336 511.346,135.883 516.004,123.903 L538.465,65.863 C538.578,65.571 538.544,65.241 538.365,64.982 C538.187,64.725 537.9,64.57 537.586,64.57 L524.108,64.57 C523.704,64.57 523.343,64.827 523.211,65.206 L509.404,104.644 L494.281,65.18 C494.143,64.813 493.789,64.57 493.397,64.57 L471.277,64.57 L471.28,64.567 Z" id="Path"></path>
        <path d="M442.5,64.51 L429.553,64.51 C429.03,64.51 428.604,64.936 428.604,65.459 L428.604,121.944 C428.604,122.467 429.03,122.893 429.553,122.893 L442.5,122.893 C443.022,122.893 443.449,122.467 443.449,121.944 L443.449,65.463 C443.449,64.94 443.029,64.514 442.499,64.514 L442.5,64.51 Z" id="Path"></path>
        <path d="M436.1,38.791 C430.971,38.791 426.809,42.943 426.809,48.072 C426.809,53.204 430.972,57.361 436.1,57.361 C441.227,57.361 445.385,53.204 445.385,48.072 C445.385,42.944 441.225,38.791 436.105,38.791 L436.1,38.791 Z" id="Path"></path>
        <path d="M549.52,82.671 C544.396,82.671 540.409,78.556 540.409,73.559 C540.409,68.562 544.448,64.4 549.568,64.4 C554.692,64.4 558.679,68.514 558.679,73.507 C558.679,78.504 554.639,82.671 549.519,82.671 L549.52,82.671 Z M549.57,65.306 C544.903,65.306 541.372,69.016 541.372,73.559 C541.372,78.1 544.878,81.76 549.523,81.76 C554.189,81.76 557.724,78.053 557.724,73.507 C557.724,68.966 554.214,65.306 549.574,65.306 L549.57,65.306 Z M551.59,74.444 L554.167,78.052 L551.994,78.052 L549.674,74.742 L547.679,74.742 L547.679,78.052 L545.86,78.052 L545.86,68.488 L550.125,68.488 C552.347,68.488 553.808,69.625 553.808,71.539 C553.818,73.107 552.908,74.065 551.598,74.444 L551.59,74.444 Z M550.05,70.129 L547.678,70.129 L547.678,73.154 L550.05,73.154 C551.234,73.154 551.941,72.575 551.941,71.64 C551.941,70.656 551.231,70.129 550.051,70.129 L550.05,70.129 Z" id="Shape"></path>
    </g>
</svg>
