<svg viewBox="0 0 802 289" xmlns="http://www.w3.org/2000/svg"><g fill="#FFF"><path d="M530.55 43.61h-21.24v22.77c0 .9-.72 1.62-1.62 1.62h-11.07c-.9 0-1.62-.72-1.62-1.62V6.62c0-.9.72-1.62 1.62-1.62h40.23c.9 0 1.62.72 1.62 1.62v10.17c0 .9-.72 1.62-1.62 1.62h-27.54V30.2h21.24c.9 0 1.62.72 1.62 1.62v10.17c0 .9-.72 1.62-1.62 1.62zm69.21-17.82c0 8.91-4.86 15.3-11.61 18.63l10.35 22.14c.36.63-.18 1.44-.9 1.44h-12.51c-.99 0-1.89-.54-2.34-1.44l-9.18-19.71h-6.39v19.53c0 .9-.72 1.62-1.62 1.62h-11.07c-.9 0-1.62-.72-1.62-1.62V6.62c0-.9.72-1.62 1.62-1.62h22.5c17.46 0 22.77 12.24 22.77 20.79zm-21.96 7.56c6.12-.18 7.56-5.22 7.56-7.56 0-2.61-1.44-7.47-7.92-7.47h-10.26v15.03h10.62zm64.08-29.43c23.85 0 31.23 19.35 31.23 32.49 0 13.5-7.38 32.58-31.23 32.58-23.94 0-31.32-19.08-31.32-32.58 0-13.14 7.38-32.49 31.32-32.49zm0 51.57c14.49 0 16.56-14.4 16.56-19.08 0-4.68-2.07-18.9-16.56-18.9-14.58 0-16.65 14.22-16.65 18.9 0 4.68 2.07 19.08 16.65 19.08zM700.38 68h-11.25c-.9 0-1.62-.72-1.62-1.62V5.45c0-.72.54-1.35 1.26-1.35.9 0 1.71.36 2.34.9l34.2 31.95V6.62c0-.9.72-1.62 1.62-1.62h11.16c.9 0 1.62.72 1.62 1.62v60.66c0 .63-.54 1.17-1.17 1.17-.72 0-1.44-.27-1.98-.81L702 34.97v31.41c0 .9-.72 1.62-1.62 1.62zm68.85-1.62V18.41h-14.85c-.9 0-1.62-.72-1.62-1.62V6.62c0-.9.72-1.62 1.62-1.62h44.37c.9 0 1.62.72 1.62 1.62v10.17c0 .9-.72 1.62-1.62 1.62h-15.03v47.97c0 .9-.72 1.62-1.62 1.62h-11.25c-.9 0-1.62-.72-1.62-1.62zm-238.68 71.23H509.4v10.98h27.54c.9 0 1.62.72 1.62 1.62v10.17c0 .9-.72 1.62-1.62 1.62h-40.32c-.9 0-1.62-.72-1.62-1.62v-59.76c0-.9.72-1.62 1.62-1.62h40.32c.9 0 1.62.72 1.62 1.62v10.17c0 .9-.72 1.62-1.62 1.62H509.4v11.79h21.15c.9 0 1.62.72 1.62 1.62v10.17c0 .9-.72 1.62-1.62 1.62zM565.83 162h-11.25c-.9 0-1.62-.72-1.62-1.62V99.45c0-.72.54-1.35 1.26-1.35.9 0 1.71.36 2.34.9l34.2 31.95v-30.33c0-.9.72-1.62 1.62-1.62h11.16c.9 0 1.62.72 1.62 1.62v60.66c0 .63-.54 1.17-1.17 1.17-.72 0-1.44-.27-1.98-.81l-34.56-32.67v31.41c0 .9-.72 1.62-1.62 1.62zm80.01 0h-21.06c-.9 0-1.62-.72-1.62-1.62v-59.76c0-.9.72-1.62 1.62-1.62h21.06c23.94 0 31.23 18.27 31.23 31.41 0 13.5-7.29 31.59-31.23 31.59zm-8.37-13.41h8.37c14.58 0 16.65-13.5 16.65-18.18s-2.07-18.09-16.65-18.09h-8.37v36.27zm-100.71 86.53v-40.77c0-.72.63-1.35 1.35-1.35h6.57c.72 0 1.35.63 1.35 1.35v61.29c0 .45-.36.81-.81.81-.54 0-.99-.18-1.35-.63l-39.51-42.39-.09 41.22c0 .72-.63 1.35-1.35 1.35h-6.57c-.72 0-1.35-.63-1.35-1.35v-61.38c0-.54.36-.9.81-.9.54 0 1.08.27 1.44.63l39.51 42.12zm54.81-43.02c24.03 0 31.14 19.17 31.14 32.31 0 13.5-7.11 32.4-31.14 32.4s-31.14-18.9-31.14-32.4c0-13.14 7.11-32.31 31.14-32.31zm0 56.52c18.99 0 21.69-18.18 21.69-24.21 0-6.03-2.7-24.12-21.69-24.12-18.99 0-21.78 18.09-21.78 24.12 0 6.03 2.79 24.21 21.78 24.21zm54.63-16.02v22.05c0 .72-.63 1.35-1.35 1.35h-6.39c-.72 0-1.35-.63-1.35-1.35v-60.3c0-.72.63-1.35 1.35-1.35h21.96c16.83 0 21.87 11.7 21.87 19.71 0 9.36-6.48 16.2-14.04 18.81l10.98 23.22a.887.887 0 0 1-.81 1.26h-7.2c-.81 0-1.62-.45-1.89-1.26l-10.44-22.14H646.2zm15.03-8.19c9.63-.18 11.79-8.01 11.79-11.7 0-4.05-2.16-11.7-12.15-11.7H646.2v23.4h15.03zm48.78 30.24V201.1h-16.92c-.72 0-1.35-.63-1.35-1.35v-5.4c0-.72.63-1.35 1.35-1.35h43.29c.72 0 1.35.63 1.35 1.35v5.4c0 .72-.63 1.35-1.35 1.35h-17.1v53.55c0 .72-.63 1.35-1.35 1.35h-6.57c-.72 0-1.35-.63-1.35-1.35zM760.05 229v25.65c0 .72-.63 1.35-1.35 1.35h-6.57c-.72 0-1.35-.63-1.35-1.35v-60.3c0-.72.63-1.35 1.35-1.35h6.57c.72 0 1.35.63 1.35 1.35v26.55h32.49v-26.55c0-.72.63-1.35 1.35-1.35h6.57c.72 0 1.35.63 1.35 1.35v60.3c0 .72-.63 1.35-1.35 1.35h-6.57c-.72 0-1.35-.63-1.35-1.35V229h-32.49z"/><g transform="rotate(-45 266.048 113.952)"><rect width="99" height="99" rx="7"/><rect x="109" width="99" height="208" rx="7"/><rect x="218" width="99" height="317" rx="7"/></g></g></svg>