<svg viewBox="0 0 1376 474" xmlns="http://www.w3.org/2000/svg"><g fill="#FFF"><path d="M57.566 431.046H23.172v36.742a2.608 2.608 0 0 1-2.623 2.614H2.623A2.608 2.608 0 0 1 0 467.788v-96.431a2.608 2.608 0 0 1 2.623-2.614h65.145a2.608 2.608 0 0 1 2.623 2.614v16.41a2.608 2.608 0 0 1-2.623 2.615H23.172v19.025h34.394a2.608 2.608 0 0 1 2.623 2.614v16.41a2.608 2.608 0 0 1-2.623 2.615zm109.779-28.756c0 14.378-7.87 24.69-18.8 30.063l16.76 35.726c.583 1.016-.292 2.323-1.458 2.323H143.59a4.203 4.203 0 0 1-3.79-2.323l-14.864-31.805h-10.348v31.514a2.608 2.608 0 0 1-2.623 2.614H94.04a2.608 2.608 0 0 1-2.623-2.614v-96.431a2.608 2.608 0 0 1 2.623-2.614h36.435c28.273 0 36.871 19.75 36.871 33.547zm-35.56 12.2c9.91-.29 12.242-8.424 12.242-12.2 0-4.211-2.332-12.053-12.825-12.053h-16.614v24.253h17.197zM233.257 367c38.62 0 50.57 31.224 50.57 52.427 0 21.785-11.95 52.573-50.57 52.573-38.766 0-50.716-30.788-50.716-52.573 0-21.203 11.95-52.427 50.716-52.427zm0 83.216c23.464 0 26.816-23.237 26.816-30.789 0-7.551-3.352-30.498-26.816-30.498-23.609 0-26.961 22.947-26.961 30.498 0 7.552 3.352 30.789 26.961 30.789zm92.437 20.186h-18.217a2.608 2.608 0 0 1-2.624-2.614v-98.32c0-1.16.875-2.178 2.04-2.178 1.458 0 2.77.581 3.79 1.453l55.38 51.556v-48.942a2.608 2.608 0 0 1 2.623-2.614h18.071a2.608 2.608 0 0 1 2.624 2.614v97.884c0 1.016-.875 1.888-1.895 1.888a4.53 4.53 0 0 1-3.206-1.307l-55.963-52.718v50.684a2.608 2.608 0 0 1-2.623 2.614zm107.738-2.614v-77.406h-24.046a2.608 2.608 0 0 1-2.623-2.614v-16.411a2.608 2.608 0 0 1 2.623-2.614h71.848a2.608 2.608 0 0 1 2.623 2.614v16.41a2.608 2.608 0 0 1-2.623 2.615h-24.338v77.406a2.608 2.608 0 0 1-2.623 2.614h-18.217a2.608 2.608 0 0 1-2.624-2.614zm168.26-36.742h-34.249v17.717h44.595a2.608 2.608 0 0 1 2.624 2.615v16.41a2.608 2.608 0 0 1-2.624 2.614h-65.29a2.608 2.608 0 0 1-2.623-2.614v-96.431a2.608 2.608 0 0 1 2.623-2.614h65.29a2.608 2.608 0 0 1 2.624 2.614v16.41a2.608 2.608 0 0 1-2.624 2.615h-44.595v19.025h34.248a2.608 2.608 0 0 1 2.623 2.614v16.41a2.608 2.608 0 0 1-2.623 2.615zm54.835 39.356H638.31a2.608 2.608 0 0 1-2.623-2.614v-98.32c0-1.16.874-2.178 2.04-2.178 1.458 0 2.77.581 3.79 1.453l55.38 51.556v-48.942a2.608 2.608 0 0 1 2.623-2.614h18.071a2.608 2.608 0 0 1 2.623 2.614v97.884c0 1.016-.874 1.888-1.894 1.888a4.53 4.53 0 0 1-3.206-1.307l-55.963-52.718v50.684a2.608 2.608 0 0 1-2.624 2.614zm127.268 0h-34.103a2.608 2.608 0 0 1-2.623-2.614v-96.431a2.608 2.608 0 0 1 2.623-2.614h34.103c38.766 0 50.57 29.481 50.57 50.684 0 21.785-11.804 50.975-50.57 50.975zm-13.554-21.639h13.554c23.61 0 26.961-21.784 26.961-29.336 0-7.551-3.352-29.19-26.961-29.19H770.24v58.526zm193.381-12.053V370.92c0-1.162 1.02-2.178 2.187-2.178h10.638c1.166 0 2.186 1.016 2.186 2.178v98.9c0 .727-.583 1.308-1.311 1.308-.875 0-1.603-.29-2.186-1.017l-63.979-68.402-.145 66.514c0 1.162-1.02 2.178-2.187 2.178h-10.638c-1.166 0-2.186-1.016-2.186-2.178v-99.046c0-.87.583-1.452 1.311-1.452.875 0 1.75.436 2.332 1.017l63.978 67.967zm85.643-69.42c38.912 0 50.425 30.934 50.425 52.137 0 21.785-11.513 52.283-50.425 52.283s-50.425-30.498-50.425-52.283c0-21.203 11.513-52.137 50.425-52.137zm0 91.204c30.75 0 35.122-29.336 35.122-39.067 0-9.73-4.372-38.92-35.122-38.92s-35.268 29.19-35.268 38.92 4.517 39.067 35.268 39.067zm85.35-25.85v35.58c0 1.162-1.02 2.178-2.185 2.178h-10.348c-1.165 0-2.186-1.016-2.186-2.178v-97.303c0-1.162 1.02-2.178 2.186-2.178h35.56c27.253 0 35.414 18.88 35.414 31.805 0 15.103-10.493 26.14-22.735 30.352l17.78 37.47a1.432 1.432 0 0 1-1.311 2.032h-11.66c-1.311 0-2.623-.726-3.06-2.033l-16.905-35.726h-20.55zm24.339-13.217c15.594-.29 19.091-12.925 19.091-18.88 0-6.535-3.497-18.879-19.674-18.879h-23.755v37.76h24.338zm72.963 48.797v-86.41h-27.398c-1.166 0-2.186-1.017-2.186-2.18v-8.713c0-1.162 1.02-2.178 2.186-2.178h70.099c1.166 0 2.186 1.016 2.186 2.178v8.714c0 1.162-1.02 2.178-2.186 2.178h-27.69v86.411c0 1.162-1.02 2.178-2.186 2.178h-10.639c-1.166 0-2.186-1.016-2.186-2.178zm76.461-41.39v41.39c0 1.162-1.02 2.178-2.186 2.178h-10.639c-1.166 0-2.186-1.016-2.186-2.178v-97.303c0-1.162 1.02-2.178 2.186-2.178h10.64c1.165 0 2.185 1.016 2.185 2.178v42.842h52.611v-42.842c0-1.162 1.02-2.178 2.186-2.178h10.639c1.166 0 2.186 1.016 2.186 2.178v97.303c0 1.162-1.02 2.178-2.186 2.178h-10.639c-1.166 0-2.186-1.016-2.186-2.178v-41.39h-52.61z"/><g transform="rotate(-45 496.634 -451.974)"><rect width="97" height="99" rx="7"/><rect x="109" width="97" height="208" rx="7"/><rect x="218" width="97" height="317" rx="7"/></g></g></svg>