<?xml version="1.0" standalone="no"?>
<!DOCTYPE svg PUBLIC "-//W3C//DTD SVG 20010904//EN"
 "http://www.w3.org/TR/2001/REC-SVG-20010904/DTD/svg10.dtd">
<svg version="1.0" xmlns="http://www.w3.org/2000/svg"
 width="884.000000pt" height="884.000000pt" viewBox="0 0 884.000000 884.000000"
 preserveAspectRatio="xMidYMid meet">
<metadata>
Created by potrace 1.11, written by Peter Selinger 2001-2013
</metadata>
<g transform="translate(0.000000,884.000000) scale(0.100000,-0.100000)"
fill="#000000" stroke="none">
<path d="M4344 7272 c-36 -18 -1219 -1197 -1239 -1234 -20 -37 -19 -97 4 -133
27 -44 4311 -4324 4346 -4343 39 -20 89 -17 128 8 18 11 303 291 635 623 436
437 602 610 604 628 1 13 2 33 3 44 0 11 -4 33 -11 49 -6 16 -977 995 -2175
2193 -2227 2226 -2182 2183 -2250 2180 -9 0 -30 -7 -45 -15z"/>
<path d="M2816 5735 c-30 -11 -169 -144 -647 -622 -658 -659 -639 -636 -617
-721 7 -25 324 -348 1408 -1432 1209 -1209 1404 -1400 1434 -1406 88 -16 60
-39 719 619 658 658 647 645 625 725 -8 31 -238 265 -1396 1425 -763 764
-1400 1395 -1417 1404 -40 22 -63 24 -109 8z"/>
<path d="M1263 4189 c-39 -18 -1233 -1205 -1233 -1226 0 -6 -6 -16 -14 -22
-15 -13 -13 -86 3 -105 5 -6 10 -15 11 -21 3 -16 1223 -1235 1252 -1250 34
-19 91 -19 126 -1 33 17 1218 1202 1238 1237 16 29 18 78 4 113 -13 35 -1242
1264 -1277 1277 -45 18 -70 17 -110 -2z"/>
</g>
</svg>
